<mxfile host="app.diagrams.net" agent="Mozilla/5.0 (Windows NT 10.0; Win64; x64) AppleWebKit/537.36 (KHTML, like Gecko) Chrome/137.0.0.0 Safari/537.36" version="27.1.4">
  <diagram name="Page-1" id="wB0_8g3Hck7inMth7nFt">
    <mxGraphModel dx="727" dy="403" grid="1" gridSize="10" guides="1" tooltips="1" connect="1" arrows="1" fold="1" page="1" pageScale="1" pageWidth="850" pageHeight="1100" math="0" shadow="0">
      <root>
        <mxCell id="0" />
        <mxCell id="1" parent="0" />
        <mxCell id="4pEV9Q5xe-dX64LNk-WE-1" value="" style="shape=image;verticalLabelPosition=bottom;labelBackgroundColor=default;verticalAlign=top;aspect=fixed;imageAspect=0;image=data:image/jpeg,/9j/4QAWRXhpZgAATU0AKgAAAAgAAAAAAAD/2wBDAAYEBQYFBAYGBQYHBwYIChAKCgkJChQODwwQFxQYGBcUFhYaHSUfGhsjHBYWICwgIyYnKSopGR8tMC0oMCUoKSj/2wBDAQcHBwoIChMKChMoGhYaKCgoKCgoKCgoKCgoKCgoKCgoKCgoKCgoKCgoKCgoKCgoKCgoKCgoKCgoKCgoKCgoKCj/wgARCALcAyIDASIAAhEBAxEB/8QAGgABAQEBAQEBAAAAAAAAAAAAAAQDBQIBBv/EABYBAQEBAAAAAAAAAAAAAAAAAAABAv/aAAwDAQACEAMQAAAC/VAAAAAAAAAAAAAAAAAAAAAAAAAAAAAAAAAAAAAAAAAAAAAAAAAAAAAAEaWPHtQDGROiw3B4X24/QSh58mgUAx2Qy5x1nn0oABzrk9hQDHZDLErTRnVSxHXQYHWfPqniFOinoAUAAAAAAAAAAAAAAAAAAAAAAABx+xknijLUBcOZ1vqcJ3fFn5n9Vhsv5Lodr4nFn/SfDk4dz6fmP0vzY4GH6X4euH3MZeVP+h+WcbbrfDz83S8J1/NnH99fQ/Nb9v4cTH9H8OJV0fa8r3TtHO436vzZDP0xpnR9l8cbrQ2eepzOmehNAAAAAAAAAAAAAAAAAAAAAAAAAAAAAAAAAAAAAAAAAAAAAAAAAAAAAAAAAAAAAAAAAAAAAAAAAAAAAAAAAHzwaAAGRqAAeD2AAeD2AAA8ewAA8ewAA8ewAA8ewAAZGoAAAAAAAAAAAAAAAAAAAAAAAAOTzP1MBeABPRgbgAT0TlAAE9E5QAACeiegAAnonoAAJ6J6AACeiegAAT0YG4AAAAAAAAAAAAAAAAAAAAAAAAEF8BeABhvgbgAT0TlAAE9E5QAACeiegAAnonoAAJ6J6AACeiegAAYb4G4AAAAAAAAAAAAAAAAAAAAAAAAEF8BeABhvgbgAT0SFaNFiMWT+MV6KMliMWIxpRNTQAE9EPqLEYsRjSjnarYk+JYkL7o53QT6KAYb4G4AAAAAAAAAAAAAAAAAAAAAAAAEF8BeABPROUAARWxy1vqz4+j5hRObvo+Po+PojsjsgKAisksl+Pqz4+iffCg+Po+PoitjslCwBhvOUAAAAAAAAAAAAAAAAAAAAAAAAAQXwF4AE9E5QABHZHLYLAE9E5QAACOyOyAoCOyOyULAJ6J6AACOyOyULAE9E5QAAAAAAAAAAAAAAAAAAAAAAAABBfAXgAT0TlAAEdkctgsAT0TlAAAI7I7ICgI7I7JQsAnonoAAI7I7JQsAT0TlAAAAAAAAAAAAAAAAAAAAAAAAAEF8BeABPROUAAR2Ry2CwBPROUAAAjsjsgKAjsjslCwCeiegAAjsjslCwBPROUAAAAAAAAAAAAAAAAAAAAAI5Drvzt500Vh9R2CC+AvAAnonKAAI7I5bBYAnowNwAAR2R2QFAR2R2ShYBPRhuAAR2R2ShYAnowNwAAAAAAAAAAAAAAAAAAAATydMc7LrDBuJagcTtwBeIF4gx6sxivEC8QTdiOXwvWQLxBj1cCdeIF4gXjj0+7IgXqgXjj0+7JYF6yBeOXrRuQLxAvHHp92SwL1kC8QZdScwXj8/RVsUAAAAAAAAAAAAAAAAAAAAAAAQX8o6qdFCcUTsS5OKE4oi1mXoiwBhvgbgAAjs5tUtCclCcZ2QXqFgGG+G4ABHXJpLQnJQnFE33zVQAHj2OPv8AMyj7L4O0AAAAAAAAAAAAAAAAAAABzOnAVNRk1GWFk57ajJqMsa5zf6ADDfA3AABHv4oMmoyaiWrDcAAw3w3AAJ/figyajJqMsqpSoAAAAAAAAAAAAAAAAAAAAAAAACC+AvAAnonKAAJ6JygACeicoAABPRPQAAT0T0AAE9E9AABPRPQAAJapikAAAAAAAAAAAAAAAAAAAAAAAACC+AvAAnonKAAJ6JygACeicoAABPRPQAAT0T0AAE9E9AABhvhuAAJqZikAAAAAAAAAAAAAAAAAAAAAAAACC+AvAfMjaeicoAfJiqeicoAMTaeicoAJyh49k9E9APh9Y7E9E9AAY7E9E9AASVmG+G4AZez1NTMUgAAAAAAAAAAAAAAAAAAAAAAAAQXwF4M5L/J6nonKAYcvt5Gs9E5QBzOn5PU9E5QBzujkSdD59J6J6BnoOf0PPononoHz6OZ0/PononoAOB3POphvhuAQ0+/p9nonKAAAAAAAAAAAAAAAAAAAAAAAAAIbgAAnoAACegAAMNwAABhuAAGG4AAYbgABhuAACegAAAAAAAAAAAAAAAAAAAAAAAAAAAAAAAAAAAAAAAAAAAAAAAAAAAAAAAAAAAAAAAAAAAAAAAAAAAAAAAAAAAAAAAAAAAAAAAAAAAAAAAAAAAAAAAAAAAAAAAAAAAAAAAAAAAAAAAAAAAAAAAAAAAAAAAAAADE2S6mqakHw+sdDLeP0VMPht6m+nvPOsepKwAAAAAAACKOjn3Pe9x2Sgs/N6MqbactZ0KfzX6WXhdPhWaz08pMpezjELbPzPfMdedMd/jdjinY8czwdbTnfTrsfkvO63At1K/n5+w6sE8qfqpnPl+2ecCbo8DpnvrcroS68u7lHX8ZzHUCgAAAAAAAIrcjTxj4PX1QTffg0x3+GVktJLp49nzP36M68tSSvz6AAAAAAAAAAAAAAAAAAAAAAAMfm5MG4wbjDOsfPooAAHh7ICgAAAAAAAJqfhlhT7Mfegw19CbXQefQAAAAAAAAAAAAAAAAAAAAAAAAAAAAAAAAAAAAAAAAAAAAAAAAAAAAAAAAAAAAAAAAAAAAAAAAAAAAAAAAAAAAAAAAAAAAAAAAAAAAAAAAAAAAAAAAAAAAAADI1c/oAABhuAAGG4AAYbgAAwNwADE2AAMDcAAwNwAAGOwAAAAAAAAAAAAAAAAAAAAAAAA53RH5v9JBeAAYb4bgAGG+G4ABhvhuAAMN8DcACeicoAAw3wNwAMN8DcAAE9E9AAAAAAAAAAAAAAAAAAAAAAAAABBfBeAAYb4bgAGG+G4ABhvhuAAMN8DcACeicoAAw3wNwAMN8DcAAE9E9AAAAAAAAAAAAAAAAAAAAAAAAABBfBeAAT0czaLUQtRDbfmdOgAJ6IkWohaiFmOItFAJ6JygACejnx0EX0sRivDOU6woACeiegAAAAAAAAAAAAAAAAAAAAAAAAAgvgvAAIrYrZQsAititlCwCOuSuX6LAEVsUtosAT0TlAAEVsUtosAR2RxYKAAnonoAAAAAAAAAAAAAAAAAAAAAAAAAIL4LwACK2K2ULAIrYrZQsAjrkrl+iwBFbFLaLAE9E5QABFbFLaLAEdkcWCgAJ6MNwAAAAAAAAAAAAAAAAAAAAAAAACC+C8AAititlCwCK2K2ULAI65K5fosARWxS2iwBhvgbgARWxS2iwBHZHFgoADDfDcAAAAAAAAAAAAAAAAAAAAAAAAAgvgvAAIrYrZQsAititlCwCOuSuX6LAEVsUtosAYb4G4AEVsUtosAR2RxYKAAw3w3AAAAAAAAAAAAAAAAAAAAAAAAAIL4LwACK2K2ULAIrYrZQsAjrkrl+iwBFbFLaLAGG85QABFbFLaLAEdkcWCgAMN8NwZmgAAAAAAAAAAAAAAAAAAHP6EIlz8ltvL6RrNpzjrg4ta8gXiBeONV6tiBeqBeONV6tlgXrIF441XuuWFesgXiCXsxS+V6yBeIJuxgTrxAvEEvZjl8L1kC8QS9mOPC9UC8QLxyttqSDh/q/Bx+19HK19SFfqKc/QgAAAAAAAAAAAAAAAAAAAAgv49ctqIWogt5959FgEVsHqW1ELUQWcvqH0WAIrOXL1UQtRC3DGc6qIWohbExOmLAEdkUWoi2ohaiHuqSuwAAAAAAAAAAAAAAAAAAAAAAAACC+C8AAnonoAAJ6J6AACeiegAAT0TlAAE9E5QABPROUAAYb4G4AAJapagAAAAAAAAAAAAAAAAAAAAAAAACC+C8AAnonoAAJ6J6AACeiegAAT0TlAAE9E5QABPROUAAYb4G4AAJapqQAAAAAAAAAAAAAAAAAAAAAAAACC+C8AAnow3AAJ6MNwACejDcAAT0YG4AE9GBuABPRgbgAYbzlAAAJqZ6AAAAAAAAAAAAAAAAAAAAAAAAACC+C8GRqjsMN8NweD25fTMd8NwA595jvhuAEGxThvgbgMsCzDfA3AfIS/DbE3AOSdaffAoAIS559E9E9AAAAAAAAAAAAAAAAAAAAAAAAABBfBePn0SVhhvhuM9ByesGG+G4BHYGG+G4Bz9aww3wNwfJaww3wNwI7Aw3wNwON2R8wonKAJah59BhvhuAAAAAAAAAAAAAAAAAAAAAAAAAT0AABhuAAGG4AAYbgAAw3AADDcAAMNwAAz0AAAGG4AAAAAAAAAAAAAAAAAAAAAAAAAAAAAAAAAAAAAAAAAAAAAAAAAAAAAAAAAAAAAAAAAAAAf/9oADAMBAAIAAwAAACEAAAAAAAAAAAAAAAAAAAAAAAAAAAAAAAAAAAAAAAAAAAAAAAAAAAAAAUgAEkA8EAAkUAAAUAAk0kIYgUEAAAAAAAAAAAAAAAAAAAAAAAAAGEB6UTd+U2MLEHHVmFFCIsGEfkAAAAAAAAAAAAAAAAAAAAAAAAAAAAAAAAAAAAAAAAAAAAAAAAAAAAAAAAAAAAAAAAAAAAAAAAAAAAAAAAAAwAAAAAQAAQAAAgAAgAAgAAgAAAAAAAAAAAAAAAAAAAAAAAAAAAAAABAAAAAAAAAAAAAAACgACgABAAAAAAAAAAAAAAAAAAAAAAAAABQAAAAAAAAAAAAAAAAACgACgAAQAAAAAAAAAAAAAAAAAAAAAAAABQAAAABA89I88+gACc8+YcKYAAAAAAAAAAAAAAAAAAAAAAAAAAABQABQABJDCTDCAMACLDDjDCoAAQAAAAAAAAAAAAAAAAAAAAAAAABQAAAAAIABAAAAMAAIACgACoABAAAAAAAAAAAAAAAAAAAAAAAAABQAAAAAIAAAAAAMAAIACgACoABQAAAAAAAAAAAAAAAAAAAAAAAABQAAAAAIAAQAAAMAAIACgACoAAQAAAAAAAAAAAAAAAAAAAAAgwwBQABQAAIABAAAAMAAIACAACoABAAAAAAAAAAAAAAAAAAAAAAACCBTDCTDCLDDDDDBPDBLDBDDArDCDDQAAAAAAAAAAAAAAAAAAAAAABQMMscNcAAAAAAI8MoACAABIMNQAACDwAAAAAAAAAAAAAAAAAAABQAAQABSAAAAACgACAAAAAAgABQAAAAAAAAAAAAAAAAAAAAAAAABQABAABAABQAACAACAACgACgABAAAAAAAAAAAAAAAAAAAAAAAAABQAAAAAAAAAAAAAAAAACgAAAAAAAAAAAAAAAAAAAAAAAAAAAAAABQAQAAgAAAAAAAAAgAACgAggAQQAAAAAAAAAAAAAAAAAAAAAAAABQCAQDAQBBQAQAhCAhCCgDCgBgQAAAAAAAAAAAAAAAAAAAAAAAABAABAABAAAAAAAAAAAAAAACAABAAAAAAAAAAAAAAAAAAAAAAAAAAAAAAAAAAAAAAAAAAAAAAAAAAAAAAAAAAAAAAAAAAAAAAAAAAAAAAAAAAAAAAAAAAAAAAAAAAAAAAAAAAAAAAAAAAAAAAAAAAAAAAAAAAAAAAAAAAAAAAAAAAAAAAAAAAAQAAQSAiiQgAAAAAAACkEC53JFs1kM3m00Qx83HKoaIAAAAAAAAADRxRCABAgAAAAAAAAAAAAAAAAAAAAAAACMIIIAAABEAAAAAAAABRBBCCAAAAAAAAAAAAAAAAAAAAAAAAAAAAAAAAAAAAAAAAAAAAAAAAAAAAAAAAAAAAAAAAAAAAAAAAAAAAAAAAAAAAAAAAAAAAAAAAAAAAAAAAAAAAAAAAAAAAAAAQAAAAAAAAAAAAAAAQAAAAAAAAAgAAAAAAAAAAAAAAAAAAAAAAAACgAAAAAAAAAAAAABQAAAAAAAACgAAAAAAAAAAAAAAAAAAAAAAAACgAAAAAAAAAAAAABAAAAAAAAACAAAAAAAAAAAAAAAAAAAAAAAAACgAC888AAC88+sAAAABYsPcAAAAAAAAAAAAAAAAAAAAAAAAAAAACgACoACoABYABYAAQABYAAMAAAgAAAAAAAAAAAAAAAAAAAAAAAACgACoACoABYABYABQABYAAMAACAAAAAAAAAAAAAAAAAAAAAAAAACgACoACoABYABYAAAABYAAMAAAAAAAAAAAAAAAAAAAAAAAAAAAACgACoACoABYABYAAAABYAAMAAAAAAAAAAAAAAAAAAAAAAAAAAAACgACoACoABYABYAAQABYAAMAAAAQAAAAAAAAAAAAAAAAAAARwSwBjDDvDDrDDbDDbDDDDDLDDPDDBDQBDQAAAAAAAAAAAAAAAAAAAACY464ACc47YABo44o458AAM446gAAAAAAAAAAAAAAAAAAAAAAAACgAAAAAAAAAAAAAAAAAAAAAAACgAAAAAAAAAAAAAAAAAAAAAAAACgACgACgACgABQABQAAQAAAAACAAAAAAAAAAAAAAAAAAAAAAAAACgACAACAACAABAABAABAAAQAACAAAAAAAAAAAAAAAAAAAAAAAAACgQgAAQAAwAAgAAwAAggABQAAigAAAAAAAAAAAAAAAAAAAAAAAAChAAAAAACAADAACAABAAAAAACAAAAAAAAAAAAAAAAAAAAAAAAAAAAAAAAAAAAAAAAAAAAAAABAAAAAAAAAAAAAAAAAAAAAAAAAAAAAAAAAAAAAAAAAAAAAAAAAAAAAAAAAAAAAAAAAAAAAAAAD//aAAwDAQACAAMAAAAQ888888888888888888888888888888888888888888888888888888908+18M9889q088/8APPRZiSfN/fPPPPPPPPPPPPPPPPPPPPPPPPKnfPV3MDF0eHwyXUY1inCmPXUo/PPPPPPPPPPPPPPPPPPPPPPPPPPPPPPPPPPPPPPPPPPPPPPPPPPPPPPPPPPPPPPPPPPPPPPPPPPPPPPPPPMPPOPPPPPOPPPNPPNPPNPPPPPKPPPPPPPPPPPPPPPPPPPPPPPPPBPPKPPPPPPFPPPPPPPPFPPAPPPPPPPPPPPPPPPPPPPPPPPPPPPPKPPLPPPHPPNPPPPPPPPBPPFPPOPPPPPPPPPPPPPPPPPPPPPPPPPKPPKPPKXzxHTz1PPDzz7Fcr/PPPPPPPPPPPPPPPPPPPPPPPPPPPKPPOPPOLDHBDGPfPMDDCDDIvPLPPPPPPPPPPPPPPPPPPPPPPPPPKPPOPPKPPLPPKPfPAPPEPPAvPLPPPPPPPPPPPPPPPPPPPPPPPPPKPPPPPKPPPFPKPfPFvPFPPAPPKPPPPPPPPPPPPPPPPPPPPPPPPPKPPLPPKPPOPPKPfPAPPBPPAvPOPPPPPPPPPPPPPPPPPPPPPOPMMKPPLPPKPPOHPKPfPAPPJPPAvPOPPPPPPPPPPPPPPPPPPPPPGHLHOHPLHPCDPPHPDDfLIPPDPLMvPLLPONPPPPPPPPPPPPPPPPPPPPPKXvtuvnNPPHPKDcjiPPGPPMfvufPLIOPPPPPPPPPPPPPPPPPPPPKPcPUMNPPKHPPHcIJPPJPPIMMKPPPPPPPPPPPPPPPPPPPPPPPPPKPPLPPLPPOHPPHPPPPPJPPHPPOPPPPPPPPPPPPPPPPPPPPPPPPPKPPLPPPHPPNPPPPPPPPBPPDPPLPPPPPPPPPPPPPPPPPPPPPPPPPKPNOPMPNOPHOPPPNPPNEPNIPPPPPPPPPPPPPPPPPPPPPPPPPPPPKPCOPLPPKLNLHNPNPPNGPDAPDKPPPPPPPPPPPPPPPPPPPPPPPPPLPPPPPPPPLPPPHPPHPPHPPDPPPPPPPPPPPPPPPPPPPPPPPPPPPPPPPPPPPPPPPPPPPPPPPPPPPPPPPPPPPPPPPPPPPPPPPPPPPPPPPPPPPPPPPPPPPPPPPPPPPPPPPPPPPPPPPPPPPPPPPPPPPPPPPPPPPPPPPPPPPPPPPPPPPPPPPPPPPPPONNPOPNNOHPPPPPPPPFnfDr7gWG0UJ6pcSriT9fm9qfPPPPPPPPPJIDIHBONPPPPPPPPPPPPPPPPPPPPPPPPBP/wA8zzzw3zzzzzzzzziTyzyzzzzzzzzzzzzzzzzzzzzzzzzzzzzzzzzzzzzzzzzzzzzzzzzzzzzzzzzzzzzzzzzzzzzzzzzzzzzzzzzzzzzzzzzzzzzzzzzzzzzzzzzzzzzzzzzzzzzzzzzTzzzzzzzzzzzzzyjzzjzzzzyjTzzzzzzzzzzzzzzzzzzzzzzzyxTzxzzxTzxzzxzzzDzzjzyzzyjTzzzzzzzzzzzzzzzzzzzzzzzzxTyzzzxTzxzzxzzyzzzjzyzzzhzzzzzzzzzzzzzzzzzzzzzzzzzxTyif+8nzyb/+7zxTzxNsHXzzzzzzzzzzzzzzzzzzzzzzzzzzzzxTzzzzyjzzzzzzzzjzzzzz9TyzTzzzzzzzzzzzzzzzzzzzzzzzzxTzzzzyjzzzzzzzwzzzzzz9TyxTzzzzzzzzzzzzzzzzzzzzzzzzxTzzzzyjzzzzzzzzzzzzzz9TyzzzzzzzzzzzzzzzzzzzzzzzzzzxTzzzzyjzzzzzzzxzzzzzz9TyzzzzzzzzzzzzzzzzzzzzzzzzzzxTzzzzyDzxTzzTzzTzzzzztTyzTzjjzzzzzzzzzzzzzzzzzRgCCTTyy3yy7yyTzxTzwzzxhzxMTzxyiwATTzzzzzzzzzzzzzzzzzzzg7ww7zgTwzfzwlzwzzxxTwJzz7TzzzzzzzzzzzzzzzzzzzzzzzyzTyxzzxzzxzzwTzwzzyzzyzzyxTzzzzzzzzzzzzzzzzzzzzzzzzxTzhTzxTzxTzwDzyDzzjzyzzzzTzzzzzzzzzzzzzzzzzzzzzzzzxTzzTzzTzzTzzTzzzzzzzyzzzxzzzzzzzzzzzzzzzzzzzzzzzzzxTzDzjxTzzTjzTzTTzCzzCjzjBzzzzzzzzzzzzzzzzzzzzzzzzzxzxzTwxTyzTxTTyzzzwzzxzzwhTzzzzzzzzzzzzzzzzzzzzzzzzxzzzzzzzzzzzzzzzzzyzzyzzzzzzzzzzzzzzzzzzzzzzzzzzzzzzzzzzzzzzzzzzzzzzzzzzzzzzzzzzzzzzzzzzzzzzzzz//EAC0RAAEDAgYBAgYCAwAAAAAAAAEAAhEQMQMSICFBUBNRYQRAgIGR8CJwccHR/9oACAECAQE/AO2AnYVDSRKO1CwtuvfQ1pdbQQQJ0ZdpQYTZBjigxx2pBIlR80w5TKMcUa7LuF5BEJ785lHFBMxyhiwvJsYT8TMIXl3mE18AoYmWPZeTaCpQxIA9k7FmUcW5C8qc+Wwi/eQhixJhZxBA5phhpYQTv9v+hYgaGgAz+/5/vPMFmHqpCkLMPVZhokLMPVZh6qQpCzBAz0btbbVbbVyejdrbarbauT0btbbVbbVz0btbbVbbVyejdrbarbauT0btbbVbbVyfnpCkKVIUhE6wRCkKQhq5UhSFPUx9WzADE+qIijIiHLI28p7Q07J7WkwPVBjTssrQCU9oaJCyNJusPYFxQY3aSsrYlQj8PiOw2kNP4R+GcDEG3p91h/DuJaQ0mfZNwXkxB/CIEe6c0T/FPidkwCd1l2k9WHkCP9BeQ/oC8h/QF5D+gfRRKlSgaypUoHUdlKlT0Lai5rzXnUbVdY9C2oua8151G1XWPQtqLmvNedRtV1j0Lai5rzXnUbVdY9C2oua81N9RtV1uhFRevNedRq63zxKzLMm2rO6zLMhes7rMsylZlm0HcLMsyn6eP//EADARAAECAgYKAgMAAwAAAAAAAAEAAgMREBITMlFxICExM0FQgZGxwVLwQGGAI3DR/9oACAEDAQE/AObEy1mmsAZIGdAcDs0XODdugHAmWhMTki4Daq4CrgUTAMkD+U8VhJCfGhza21WZTGFqEMgSmjCmrPXrTGFpVlwmnNJIRhkzVTXMKScwklNhykrJWaayTpoN4FGHOQmqpmJ8FJPJDgQPP/EwkuJI/wB5AE6grF/xVi/4lWT/AIlWT/iVYv8AiVYv+JRBBkaRDeRMBWL/AIlWL/iVZP8AiVZP+JVjE+JTmlt4cjhbeh8acW+7OmJt6DxpHdjM+uRwtvQ+NOLfdnTFvdB40juxmfXI4W3ofGnFvuzpi3ug8aR3YzPrkcLb0PjTi33Z0xb3QeNI7sZn1yOFt6Hxpxb7s6Yt7oPGkd2Mz65HC29D404t92dMW90HjSO7GZ9fmgE7FUdgqjsFUdgqjsFUdgobXAmY4HxpxWOrnVxVR2CqOwUXU7X+vGlVJhiWJ9Ko7BVHYItI2/lAyUziplTOKmVMqZ06xxUyplEk7dIEhTKmVM/1Y8kEywQM6HTnNqrOGpMcXDWmOcBM4Ivcq7iZJjyTIqu6SibZBF51yVYzkpoRWh7puQjDbMJ8YSImnRWy1FCc/wBJrjLWmbNaeTJVterldQfSVUH0lVB9JVQfSdGX8R2ZxVQ4jurM4junNq0hhImqhxHdVDiO6LCBPSa0uMgrP9hWf7CEMnUDyGLtGQ8Uvut+8TSd2Mz6pFw9PelCvd/FMLeNz5DF2jIeKX3W/eJpO7GZ9Ui4envShXu/imFvG58hi7RkPFL7rfvE0ndjM+qRcPT3pQr3fxTC3jc+QxdoyHil91v3iaTuxmfVIuHp70oV7v4phbxufIYu0ZDxS+637xNJ3YzPqkXD096UK938Uwt43PkMTaMh4pfdb940kf4xmfVI3ZzHvShXu/imFfbn+dZnEdwrI4juFZHEdwou3t4pLC5rdf2asjiO4VkcR3CcKrAD92UsFZhGXtWRxHcKyOI7hWRxHcKyOI7hWRxHcJjKpmSOPH9UwzJ4JVmcR3CsjiO4VmcR3H88f//EAEsQAAEDAQQDCgwFAwMBCQEAAAIBAwQRABIgIQUTURQiMTVBU4GSk7EQFSMzNFBSVHGCkdEyQmGywQZyoSQlYkAWMENgc4CQovDS/9oACAEBAAE/Av8A2baQnDBBDdbcIOCo0+9myvghKKhXkXBKcNlgnABDupWilS2j9JbtFwRbuSA/8MltEdN5lDcAQrwIhV8LqkLaq2iEWxVpZjSrz8J2UEUbjfCmtz7rQpIS4wvN1oW2xkIApGqIKZqq2YdF5kXA/CSVTC2+24840C1Jul7wSXNSwbiDeUUyTbabpN6Hq9ZGBTc4AF2q91m1JQRTG6XKla0xaV0gUC4upQwJafjovdZu8opfRELYi1wk+2MgGVXyhJWn6eCQZNsGYChKKVoq0to2Xu2IL1y5XkrWz0m68LDY33izpsTatm9LUn7mktapeBCvVRV+ltdIV5wEZa3uaLrFz/xaPpV6RFefbijda4U1ufdYNIa6ED8dpTIiu3FWmdpGk3mZjcbc7ZunyC7wf/XwuqQtqraIRbFWltEzy0gBHqkbBFp+Oq1+lnJKNSAbcSiOZAfJXZ60/qni1P8A1EtuloHWmCOjppVBwTvQn/8A0y7raYhGDiToWT4ZkifmS0xwy0do3kacIdZZEo7pZkRTcwt1QeRFpaOiNtaGMMjJ1UVfmsf4C+FoYyPEjpsmqto55RvalE6baQkgugG1hbxpVQCRORNlpMcggzq6rUkIuNgC1Qf8W0g20n9PRSAAv1SqomfBaKg/9ppaIiU1Wf8A9baFhtSRkX7yXHqjdXgs40Gr0yt1N4aXf03y2gEpQY5EtVVsVX6W0YAtzNKKABrQXyWWf5uCzdRhQH2vSjeVCLlLPls64LTZGa0EUqq20SCz5zmkZH4BybReS2lZOufhXKFGI1/Eu9NUXutpJk2tCqDygRA9QaZ3U2W0rH3Lo9x6Op3nbqOLXktHTU6dVqMiIwrVSQeD42dV9F8k22Sf8jVP4s2UhS8q20I7RcVf4t/Vfo8f++2mwEtK6Oqn4iottFsBIHSUYkTV6zep7PDbQbaOtA080N6KZfl5f/38WjI/IdfcRQGQ0/VSIlvIns0pZIzb39QzGiSgK1ndy2WSOyzp9tshFWxZ/PZEfkyZpIoC+05VDMlqKJyJlZ3yuk9Ibp/8NneV5P1S39NKi6LBEXNFWtoFV05pC9wogonwtJghPjvAuRo4VwtltBG+qvhK861dC0MZHimSUc1uoe/b2paNNis6H17KILYJS5/y2W0IzQXNIzCRDczqvIlkcU2BcaSt5KohLS1+XzLHbL//ADZa6vfJRaZ2/pP0F3/1P4S39SZaOqn4kNKWGt1K8PrN6Oy8qK802ap7Q1sLDQKKg0A3fw0HgwONg6N10BMdhJWzYC2CC2KCKciJSytgTdxQFQ9mmVkjso0rSNNo2v5buVtwxPdmOzSzgC4Ci4KEK8hJWzcZhpVVplsFXLeiiWCLHBCQGGhQsloKZ2BlpsFBtsBBeEUHJbbnZ1Wq1Ter9i7lYYkcSvCw0hcFUBLNR2WVVWWmwVfZGltxRfdmOolmwFsEFsUEU5BSltS2jquo2GsX81M7CwyLquC02ji/mQc7ONg6F1wBMdhJW24YnurHZpZY7KtI0rTatp+W7lYozBAIEy2oDwIopRLI2CN3EEUDgu0ys0y0yi6lsAr7KU8LsZh0rzrLZltIUWyxIy3ax2d7km8TKzUdllatMtgv/EaWERGt1ESq1WllYZV3Wq03rPbu52SMwjusRltHOG9dStjZbMxM2wIx4FVM0sTDJOo4TTauJ+ZRzs4w06SE40BknApDWwCgCggiCKcCJZ2Mu60kNUv0uGK8BJZphlmupabCvDdGljbA0JDASQuGqcNmozDJXmmWwLaI0tuGJ7qx2aW3DE91Y7NLIlEREyTwS2kfYJsgQ0X8qrSzWjxaKrUVsF4Ki+SfxZ6E664F4R1Y53FfJarYEoCIuzbX/wBtvBZl0Hm0NokIV5UxA8hvOtpWrdK9OInBExBV3xcCYnDFoFM1oKcuNsxcC8C1HEhipkCLvh4UxEYiYCq74uBNuJwxaBTNaCnCuOO8j7V8a0qqZ/otPWX9RSTah6hhFJ9/eoif5t/SUhxldyviQi5v21X/ADiZcUpUgFCiBdoW3LE8jW6o9/zu+ufTPFPRpYjiSfNcuOCjSRR3P5rOn1xNI1ut9Q87Qb/8Yn0a3TG1nnKrq/pnino0sN1JHmqb7HCcV2OhEFxbxJTp9Z6D4rY6e/E0bhSXwIaANLq7cTytbqj3/O7659M8U9WkiOLJ81y44KtLFHc/ms6fXE0rW630DztBv/xifVrdMbWecqur+meKerSQ3VkeapvscMzcYvOjdOpZdPrPQfFTHT34midWS+hp5NKXF78TxtJKjiaeUK9cXZlninm23EcJ9LzacKY4JtuRRJhLredE6cTRtrLfER8oKDfXbsxPm2kmMJpUyVbi7MsU8224bpPpeaRN8mOGTpMVfSh1Lvy9Z6D4qY6e/E1rd0v3/Nb25/OJ5wBlRwIakd66uzLFPcBmI4bg3xThTHBcF2MJtjcFa5dOJpwSlvgg0IEGq7cTzgjJjgQ1I1W6uzLFOcFmI644N8BTNNuOHrdQm6POVX6Vy/x6z0HxUx09+JoXUkvqa+TWlxO/E87dlR27lb97fbMsU53UxXHFC/T8uOE7rowncuVrl04mnb0t9u5S4g77bXE87ckRwuVvquezLFOd1MR1xQv3U/Dtxw0dFij61Opd+XrPQfFTHT34mgcGS+ZFUCpdTZimSxjPsI5RAOtSXkt4xh+8N/W3jGH7w39beMYfvDf1t4xh+8N/W3jGH7w39bStKRwjmTTjbhpwDXht4xh+8N/W3jGH7w39beMYfvDf1t4xh+8N/W3jGH7w39beMYfvDf1tAe3REB27dvVy6cRT2mpbzT5A3dQVRV/NbxjD94b+tvGMP3hv628Yw/eG/rbxjD94b+tvGMP3hv62d0pGR5lBdbIVVbxV/DlbxjD94b+tvGMP3hv628Yw/eG/rbxjD94b+tvGMP3hv62laUjhHMmnG3DRMgrw44YG2xddK8dVz6fWeg+KmOnvxNNKMp81OqHdoOzLFJ4wh/P3WolqWolqJalprKvRTbArir+a1LUS1EtRLUS1LaJ9Ab+Jd64o/GMz4B/NqJaiWolqJaiWeaUpEc0KiAq1TblalqWolqJaltLJ/tr/APbjhtqywgEd9akten1noPipjp78TTV2VIcv1v3d7syxSeMIfz92Kc1roptqdyv5seifQG/iXeuKNxjM+AfzieavyI536XFXLbli0vxa/wD244TWpjoF+/mS16fWeg+KmOnvxMtiMqQYlUju3k2ZYpPGEP5+7FObB6I4DhXBXhXHon0Bv4l3rijcYzPgH84nmxKTHMioQKt1NuWLS/Fsj+3HCbFqOgtleG8S16fWeg+KmOnvxMg2kqQQL5Qrt9NmWWKTxhD+fuxTwbciOC+V1teFceifQG/iXeuKNxjM+AfzifBtZMYjWhiq3E25YtL8WyP7ccIGwjoLK3gvFn05+s9B8VMdPfiZRrdUi553e3/plik8YQ/n7sU9GliOJJ81y49E+gN/Eu9cUbjGZ8A/nE+jW6Y2s85VdX9M8Wl+LZH9uOCjSR03P5u8X1rn/n1noPipjp78TKtbqkXPO72/9MsUnjCH8/dinq0kRxZPmuXHon0Bv4l3rijcYzPgH84n1a3TG1nnKrq/pni0vxbI/txwVaWOm5/N3i+tc/8APrPQfFTHT34mTbWVIEE8oN2+u3LLFJ4wh/P3Yp5ttxHCfS82nCmPRPoDfxLvXFG4xmfAP5xPm2kmMJpUyVbi7MsWl+LZH9uOEbZx0JlLoXiy6c/Weg+KmOnvxMuCUqQAjQgu3l25YpPGEP5+7FOcBmI4bg3xThTHon0Bv4l3rijcYzPgH84nnBGTHAhqRqt1dmWLS/Fsj+3HCcF2OhNjdG8SU6fWeg+KmOnvxNO3pUhu5S5d323LFJ4wh/P3Ypzupim4oX6flx6J9Ab+Jd64o3GMz4B/OJ525IjhcrfVc9mWLS/Fsj+3HCd10dDuXMySnT6q0qbjcB0mSuuci2Sa6UePVbryOiDqWSWilJ12kzacEyQW0UejksamcBt9+Q9HVB31ymf1S2ixfSPWS4RkS1S9wongYdMtISG1LeCiUTw6D4qY6e/E06RSnwUKIF2hbcsUnjCH8/dinOqzFNwQvqn5ceifQG/iXeuKNxjM+AfziedUJEcECqGq1XZli0vxbI/txw3FeYQyC4tSSnT6qnslIim2FEVacNpejydkxnmjQVBU1ie1Szej/wDTSWnrvlDU0pybLHHnkrF9GHEbTgU1SpbeC0dX1Fd0g2K/8CrZmIwy4TjTQAZcKonDZlggmvuqqXTRKeHROkYzOj2m3DVCStd4W23jaHzhdmX2t42h84XZl9reNofOF2Zfa3jaHzhdmX2t42h84XZl9rNaZjrJfEjW4NLq3C+1vG0PnC7MvtbxtD5wuzL7W8bQ+cLsy+1vG0PnC7MvtbxtD5wuzL7Wf0jFKZFNDW6N6u8LZ8LeNofOF2Zfa3jaHzhdmX2t42h84XZl9reNofOF2Zfa3jaHzhdmX2tL0wwMc1YIjc5E1Zfa3jaHzhdmX2t42h84XZl9reNofOF2Zfa3jaHzhdmX2t42h84XZl9reNofOF2Zfa2jtJRWoYCZqipX8hbfhbxtD5wuzL7W8bQ+cLsy+1vG0PnC7MvtbxtD5wuzL7W8bQ+cLsy+1mdIxRmyTU1ukgU3hfa3jaHzhdmX2t42h84XZl9reNofOF2Zfa3jaHzhdmX2t42h84XZl9rOaXYR5lAIlbVVvrqyyy+FvG0PnC7MvtbxtD5wuzL7W8bQ+cLsy+1vG0PnC7MvtbxtD5wuzL7W0jpGK7BeADVSVPYL7W8bQ+cLsy+1vG0PnC7MvtbxtD5wuzL7W8bQ+cLsy+1vG0PnC7MvtbxtD5wuzL7WjaXYJmr5EJ1XLVlty5LeNofOF2Zfa3jaHzhdmX2tpnTGqabdhO1UV3wEC762h9NtaQLV3CB7Zwp6v0HxUx09+JkmllyRBPKJdvrtyyxSeMIfz92KaToxTWOlXeRMeifQG/iX7lxR+MZnwD+cTxOpIjoCeTVVv/TFpbi1/wDtxxSdJXtbwIe9+Hh0nATSAtg44QtItSFPzWiRGIgXY7Ygnq/QfFTHT34mXBKVIARoQXby7cUnjCH8/dim63cp7m87yY9E+gN/Eu9cUbjGZ8A/nE9rd0MavzdV1n0xaW4tf/txxNbV7XV/HvfhidQ1bVGiQT5FVK2YfmKUnWSGrjHDRnhy+Nl0o2CUUXXCQENbgclmNJMvHREMUu30IkohJtS0bSDT7qNoLgKSVG+lL/w9U6HksN6NZE3mxJK5KX623ZG59rrpbdkb3hrrpbdkbn2uult2Rufa66W3ZG94a66Wanx1kPDfbS7TfXk31t2Rufa66W3ZG59rrpbdkbn2uult2Rufa66W3ZG59rrpZx5t3SETVGJ0v1urXkxTRdKKaR1o7yLj0bJZbhgJutiSKWSl+q23ZG59rrpbdkbn2uult2Rufa66W3ZG59rrpbdkbn2uuloZi5OlkBIQ0DNOnE8LqyI6gvk0Vb/0xaX4tkf223ZG94a66W3ZG59rrpbdkbn2uult2Rufa66W3ZG59rrpbdkbn2uuloWso4prVFKo51yxtxnUHSNR87W5nw5WZiPDrahwsICZ8udlhOnqRVKIkdW1WvAttHQ3AkM6xh0dUlL5v3k+VK+qdCstloxlSbBVz4U/W252eab6ttzs8031bbnZ5pvq23OzzTfVtudnmm+rZqIKSXyIG1bKl1LvBbc7PNN9W252eab6ttzs8031bbnZ5pvq23OzzTfVscb/AFTBtIICNbyInDimg47FMGSuGvAuOHEQGER8QNzOq0/W252eab6ttzs8031bbnZ5pvq23OzzTfVtudnmm+rZhhWpL5ZI2V26KJwYngcKRHICoAqt5NuWKejSw3d0ZNU31tzs8031bbnZ5pvq23OzzTfVtudnmm+rbc7PNN9W252eab6toTRtI4h8p1T4es9B8VMdPfiaaUZL5qdUO7QdmWJ1pSksGh0QK1HblinNK9FNsTuKv5scJpWYwgR31SufTiaaUZT7inVDQaDspiebU5Ec0OiAq1TblinK0kN1ZHmqb7HCaVpHaki1NVy9Z6D4qY6e/E01dlSHL9b93e7MsTzV6VHcv0uXt7tyxTmtdFNtTuV/NjhNamMIX79K59OJpq7Lfcv1voO92UxPNX5Ec79LirltyxTzbbhuk+l5pE3yY4LaNi5QxKpquXrPQfFTHT34mWxGVIMSqR3bybMsTzYFKjmRUIL11NuWKc2D0RwHCuCvCuOC2LUYQbK+KVz6cTTYjLfNCqRoNU2YnmxKTHMioQKt1NuWKc4LMR1xwb4CmabccEBAXLh36mq+s9B8VMdPfiZBtJUggXyhXb6bMssTwNrKjka0cG9cTbling25EcF8rra8K44INtxRFhbzedF6cTQNpLfIS8oSDfTZsxPg2smMRrQxVbibcsU53UxHXLl+6n4duOCLYgeqK8l9fWeg+KmOnvxMo1uqRc87vb/0yxPI1uqPf87vrn0zxT0aWI4knzXLjgo0kUdz+azp9cTSNbrfUPO0G/8AxifRrdMbWecqur+meKa4rMR1wQvkKVu7ccHVastQqqN9eHb6z0HxUx09+JlWt1SLnnd7f+mWJ5Wt1R7/AJ3fXPpninq0kRxZPmuXHBVpYo7n81nT64mla3W+gedoN/8AjE+rW6Y2s85VdX9M8U0zaiuGyN5xEyTHB1StLqK3by8O2vrPQfFTHT3+ElolVyRLRn25LWsZK8G3wMm2sqQIJ5Qbt9duWXhXJM7R5zEhy42q15KjSvw2+B42klRxNPKFeuLsyzwOyWmnm2jPyjn4R8E8224jhPpebThTBKltRqay9VeBBG8tmnBdbE21qK8C+CCbbkUSYS63nROnwqtEqvBaNIbkt6xkrwVpXwNG2st8RHygoN9duzAElo5BsgdXAzJNngfNtJMYTSpkq3F2ZYHZ7DT+qMlryrTJPivgmk6MVxY6VdpvUwSH247ROvEggnKthJCFCTgXPwQSbNlVZG6N5e/1noPipjp7/C+0Dzag6N4dltC+hZc4f7vAy4JSpACNCC7eXbl4ZqKsN9B/FcXus0Qm/ozVZqglWnJ4HnAGVHAhqR3rq7MsE1psdIQ3BFL5OZr8q+Cc4DMRw3BvinCmB9UDTDZOKiDqsq20Eipo4Ni1p4ILguxhNsbgrXLp8LzQPNqDg3hXktoaiRTROdPv8DTglLfBBoYINV24IjQM6WeFoUFNUi5fFfA84IyY4ENSNVursywSVRI2kwL8auZJ05WaqjQXuGlput3K5ufztN7g0w02cF0zFFIAW7+lo3o7X9qeCC4DrN5sLiXlSnT6z0HxUx09+AAEEoAoKfp4Gnb0qQ3cpcu77blgbYaaIibaACL8SilK+B527Kjt3K372+2ZYCASVFIUVR4P08E53UxTcUL9Py4HmGnxuvNg4OwkrZEolE8EJ3XRhO5crXLpwAAglAFBThy8DTt6W+3cpcQd9trguDfv3UvLlXwPO3JEcLlb6rnsywEw0bouk0CuDwEqZp4JoulFcSOtHab1cBChiokiKi8i2RKJRODwQndcxfuXN8SU6fWehUUdGMoSUXPvxNOkUp8FCiBdoW3LE86oyY4IFUO9UtmWKc6rMU3BC+qflxwnVejCZBcVa5dOJp1SlPtqFEBBoW2uJ51QkRwQKoarVdmWKaDjsVwGSuuKmS44bivR75BcWpJTp/8AhrB1VeUFRMF4faTwa4Kqmyyys8hs2aGNU/8AKjryBkma21zvDcy+FmXUc/RbERJJRKrTwqtEztugP1sBIaVFbEtyVWyk+WYpRLR3r+RcNn75mgjW7ZYyXclWtohVRUXkso1k0XbZRRRu0ytD/ESf9DpV92LDN5m5vOQkrW0yfKj6MZlVZVTpvbi8qfGzV7VjrFRS/RKYJ15IrhNmoEIqVUp/NtHzn90OQp53H/yOIiZ2YeRmELsp5VryqifRKWSYwTTjiEtG/wAe9Wo9HDZrSUV0m0B3zmQ71c7PIqtFdJQXalocuU9oiRKOWQm2q03o04E/S0KYpaNGTLo1lVbOaQYCM48iqSBwpdWtm9KMpDafkXm7/wDwKlhlslINhCXWglVG6th0pDXge/Nd/CvDZdKQ01lXF8n+LeFl/iwqhCiitUW0TSISpbzQCVAoiLdX9fpYJ0Y3EAXM1WiLRaL8FtI1moPU5OU3q/rbSEiU1KZiRZRuSC/FURon+LG8EVoNe5Vfw1pmS/BLOT4zccXic8kXAV1Vsk+Mut8qnkkqX6WYlNPkotlvk5FRUX/Ph07IkRSYVh4hRwqKlE+1gS6KIpKS7VsU2OL2qVzf5JwcFf1s3OYceNoCJXB4RuLlZZjCNC4pLdJaDvVqvRbTM4ghMyIb2RHd4Ez/AP1PBLkalW2wS886tARe+0vSEiFLRHxA43KYiqKn+bIT7jpo26zq7qEK3FXhr+v6WZ0lMc0a5M8hvCooXV762R599qMcdBDWJeK+laJbRs2TLmOj5Io7eV9BVL3+fDPlyGJ8dltWrr20Fy/zZy/ql1d1XP14FtDkDKYRwcuRUXkX/pG1RJC37cNhaETvJw2lZOittUbu+IqfpZkibduFwWlrvhG3kBSm9s0SC/vV3q2lJ5ZPAm9l9NpDqiqCHDbUEv4zW0TzqpZ3KUi/DwNZSlT4/wDQ6dqWjXWwAzM+BBFV5baRQ3dBxmW2nldG7UdUXIlhknr2GxYcVsxzcVKXcE9aQ3ciVVFURBFVtpSEOkYwm1UXhzAlS6vwtKjPlB0edwlVkkVweWyMuE9pOTccRtxu4CXVqWWywNuoxopNQ/VlxVPyRZb6tniuNEq3l/tStoejjd0caatxqY2d8FUFSqZZVtNKTP0QPkXRkNkhGKgqXvhZyKrkSa41ugnHgSusSi1T9KJaay89/T7AAy5fbUaio5/S0a9/2gffVp5GibohK2v6fa2gWfSRfZJLzl5L4WNt25pZNS/V40UPJFnvraO9AjoqEioCIqKlLQ2HRmaUbIDHX/gOmXLy9NgjPHDhREacF1p1VNVHJM9tpLupYI0AjVOARStbaHTVG9KmNv7pNeDUll/i09JD5wpereERJaiI78Urw0tpCKo6JVuOD7l92+lRz7sraWiLJ0X/AKdvym9VUu0VUTksw2b2mt0iBgyLd3fjdqtnWjNai+43+goP8pZtowKpSHTTYSD/AAlv6ldAnY7YrU2yqWXBY9LME40DJ/iLfEo0RE6bCLSvzGZD53XHL4K2qULpplaeoeNI78d9vforbi3uD9f/ANstpcw3RCdZdTVtLRdWqKo20jqB0aLcdwnLz+sz4eD/ABZJsZURde3n/wArSXmvHURzWgraCSVvcFk1UpyQ2QkTZomagtF+C20Ww5A3QDqkbQ01aolcs7RoUjxct0HUdbO+rRit00+HBbSEx5zRyDHjvi85vSTVlvNtoKjEYYjR2niVV3xK0SJ+q52dbI6XXnG/7afylmmjAqlIdcTYSD/CW0reXSsMxbdIWl3yi2q0s1IV2XdAHUaQFVSIFGq9NtAourlF+QnyUf8ApHWRPPgW25V5CteNk6FwWmflWwfgH4Wk5PitpiZoVm22iGqJa+COIIAiraZ+VbDmKLZ5P9QKpaQ0pLeHhtR48iySzbNx29XKzjSGSLXwXBvXqZ+rzaNSqj7g/oiD9ralz3l36D9ralz3l36D9ralz3l36D9ralz3l36D9ralz3l36D9ralz3l36D9rPQ9cKI4+6tFvJ+HJfpZMkRK1/X/uHQ1jahUkRfZs2AtAINpdFMkT/pHnDbc/423QFOWxqr7iIKZWlD5JKWY80NbSG1NRu2Ubw0K25dhWbaFvg4bEKF+JK/+XFRFTO2pb9myIg8CU/+CKQ6LDBun+EUrbQ2kR0lGVyl0kWipiadIpL7ajQQu0XbXE66QSWG0GonWq7MsU10mIxuAN8k5McJ0n4wOGNwl5MTaO695TVNXlc/nE66QSWG0ConequymKa6TEYnAG+SUy6ccVHUjgkhUV3lp6y0zCensgwDiNtKvlF5bf05o52MQSGnUVlxFQxX9FxNG4Up8CGgDdurtxOm4MlgRGoFW8uzLFNNxqMZMjfNOBMcI3HIwE8Nw14UxMtKMqQ4p1Q7tB2ZYnTcGSwAjUCvXl2YppuNxiJkbxpSidOOC0rMVtsjvqn5vWehOLGviX7lxNE6sp9DTySXbi9+J0nUksICeTWt9ejLFNJ0YxrHSrvImOETpRgWQlHeVMTLV2VIcv1v3d7syxOk6klhATyS3r692KaToxiWOlXMqJ044LWpittod+n5tvrPQnFjXxL9y4mtbup+/wCa3tz+cTut3Sxc81nf+mWKbrdynubzvJjha3cwbp87y4mWxGVIMSqR3apsyxO63dTFzzW+v/xim63cxbn87lT644LYsxGwbK+KcC+s9CcWNfEv3LiaF1JT6mvklu3E78TourJYUF8mlb6dGWKaLpRjSOtHeRccIXRjAkhau8q4mQbSVIIF8oV2+mzLLE6LqyWFBfJJevp3YpoulGJI60cyp9ccAG24jYsLebTgX1noTixr4l+5cTQODKfMiq2V26mzE6DhSWCEqANbybcsU0HHYxiyV1xeBccJtxuMAvFeNOFcTKNbqkXPO72/9MsTrbhSWDEqNjevJtxTQcdjELJXTyz6ccBGkiN7m81+X1noTixr4l+5cSFJTSMrUoBJQMjKlMrXp/NR+0X7WvT+aj9ov2ten81H7Rfta9P5qP2i/a16fzUftF+1iKT4wia5AEd/+AlWuWLS95NHPXFoWXfa9O5qP2i/a16fzUftF+1r0/mo/aL9rXp/NR+0X7WvT+aj9ov2tenc1H7RftbRF7xc1fWpZ9+JlWt1SLnnd7f+mWKerqTYeppXf5EtEXK16fzUftF+1r0/mo/aL9rXp/NR+0X7WvT+aj9ov2ten81H7RftbSJTNxnfFoRqmYmteH4Y4CtLEb3N5r8vrPQnFjXxL9y4o/GMz5O7FK9PhfP3YtL8XPdHfj0R6A309+Jk21lSBBPKDdvrtyyxSuMIfz92LS3F7nR344BtuRGyYS62vAnrPQnFjXxL9y4o/GMz5O7FK9PhfP3YtL8XPdHfj0R6A309+JlwSlSAEaEF2q7csUrjCH8/di0txe50d+OC4L0Rs2xuCvAnrPQnFjXxL9y4o/GMz5O7FK9PhfP3YtL8XPdHfj0R6A309+Jl29KkN3KXLu+25YpXGEP5+7Fpbi9zo78cF3XRW3EC5X8uz1noTixr4l+5cUfjGZ8ndilenwvn7sWl+Lnujvx6I9Ab6e/Ey6pSpAKFEC7QtuWKVxhD+fuxaW4vc6O/HBdV6KDhBcVfy+s9CcWNfEv3Lij8YzPk7sUr0+F8/di0vxc90d+PRHoDfT34mjcKS+JDQBpdXblilcYQ/n7sWluL3Ojvxwjcdigbw3HF4U9Z6E4sa+JfuXFH4xmfJ3YpXp8L5+7Fpfi57o78eiPQG+nvxNE6sl9DTyaUuL34pXGEP5+7Fpbi9zo78cInSigshKO8qes9CcWNfEv3Lij8YzPk7sUr0+F8/di0vxc90d+PRHoDfT34mtbul+/5re3PpnilcYQ/n7sWluL3OjvxwtbuUN0+d/N6z0JxY18S/cuKPxjM+TuxSvT4Xz92LS/Fz3R349EegN9PfiaF1JL6mvk1pcTvxSuMIfz92LS3F7nR344QujFBJC1d5V9Z6E4sa+JfuXFH4xmfJ3YpXp8L5+7Fpfi57o78eiPQGunvxNA4Ml8iKoFS6mzLFK4wh/P3YtLcXudHfjhA41FAHivuJwr6z0HxY18S/cuKPxjM+TuxSvT4Xz92LS/Fz3R349EegNdPfiaaUZUg1OqHdoOzLFK4wh/P3YtLcXudHemOC0rMUGyO+qfm8JOgJiBEiEXAi8vqfSc44bjF0L4Gu+2olnZii8YggqKM61Ftu2aEVuS6kZWl4RGtbaQelx0JwFjav8qEhXlWzCuKyCvIiOUzRLLbR0gpMe+aIi3lTL9F8Oit3bhDUrG1dSpeRa/iW1NJ+1D6pWppP2ofVK1NJ+1D6pWppP2ofVK1NJ+1D6pWY3fu2VRYt/e1yK1NJ+1D6pWppP2ofVK1NJ+1D6pWppP2ofVK1NJ+1D6pWkbv3ZFvLFvb67kWy3+5+1D6pWppP2ofVK1NJ+1D6pWppP2ofVK1NJ+1D6pW0l4w3E5rFi3cuBC22/3L2ofVK1NJ+1D6pWppP2ofVK1NJ+1D6pWppP2ofVK1NJ+1D6pW0bu/cTerWLdz4ULbb/c/ah9UrU0n7UPqlamk/ah9UrU0n7UPqlamk/ah9UrMBpNJkkv9NvrvChU4OS1NJ+1D6pWppP2ofVK1NJ+1D6pWppP2ofVK1NJ+1D6pWf3fu2LeWLe313Itlv8Ac/ah9UrU0n7UPqlamk/ah9UrU0n7UPqlamk/ah9UraS8YbjPWLFu5cCFtt/uXtQ+qVqaT9qH1StTSftQ+qVqaT9qH1StTSftQ+qVqaT9qH1StDa0gzHFtt2IaDlVUK1NJ+1D6pWppP2ofVK39TpJ1bCPKwr17eapFvW/p4dJoH+uXyVN6h/istaZcNgkaQWcsddyZDeVaFZNItCAa0rxkq0RsFzpZnScZ4wECLf8C3VpXZ8bJpCOsjVXirW7eu72uyvqGY0TkyMt2oJW99LNxJDUmUF28zqFFov4sOjEZjRpDLH+obzIPasr7hTlcehyiFvzaICfXht5+P8A+I1eT4ElmGtS3d1jjn6mtVtox1yO3qXIsmusLfXcs18OhOLGviX7lxR+Mpnyd2KX6fC+fuxaX4ue6O/Hoji9rp78TWt3S/f81vbn0zxSuMIfz92LS3F7nR3pjggAA5cO/U1VfCoCpISil5OBfCDZ+OHHLq6tWqVtCjOjIjKbaogq5X9K2bjO6mMmrVFR9SX9EzzszDcF0GTCWVHb/wCNEb4a19VaE4sa+JfuXFH4xmfJ3YpXp8L5+7Fpfi93o78eiOL2unvxNC6kl9TXya0uJ34pPGEP5+7Fpfi9zo70xwRbFs9Ud5FNVX4+s9FOyRgAjcZDGpUXWU/MttdM90Htba6Z7oPa210z3Qe1trpnug9rbXTPdB7W0FSKZKVxEE97Ua1plinqSSoitohHvqCq0rlbXTPdB7W2ume6D2ttdM90Htba6Z7oPa210z3Qe1tpByQUQ0dYFsMqlrK0zx6PckDEBGmBcDOhaylc7a6Z7oPa210z3Qe1trpnug9rbXTPdB7W2ume6D2tmH5e65PkRL8O81v4cra6Z7oPa210z3Qe1trpnug9rbXTPdB7W2ume6D2tr7paQi69sWqXqb+tcsWmL3i524N4ssum2ume6D2ttdM90Htba6Z7oPa210z3Qe1trpnug9rbXTPdB7W2jrmpLV1/Eta7fWeg+LGviX7lxMq1uuRc87vb/8AGJ5Wt1R7/nd9c+meKerSRHN0ea5ccBWliBufzWdPriZVrdci553e3/plieVrdce/53fXP5xTTcajETI3jSlE6ccDVK0WpQkG8vDt9Z6E4sa+JfuXE0bay5AgnlBu3127MTxtJKjiaeUK9cXZlninm03EMn0vNpwpjgG25FAmEutrwJ04mTbWVIEE8oN2+u3LLE6bSS44mnlCvXF2bcU0nRjEsdKuZUTpx6PVsmVVoLg3ly9Z6E4sa+JfuXE04JS5AINCC7VduJ5wRlRwUakd6i7MsU5wWYpm4N8U5McFwXooG2NwV5OnEy4JSpACNCC7VduWJ1wBlRwUakd6i7MU3W7mLc/ncqfXHo8xNhVALiXly9Z6E4sa+JfuXE07elPt3KXLu+24nnbkqOFyt+9vtmWKc7qYpuKF+n5ccF3XRQcQLlfy4mXb0qQ3cpcu77blidduyo7dyt+9vtmKaLpRiSOtHMqL044DiOsXkBAzXJPWehOLGviX7lxNOqUp9tQogXaFtxOuqMmOCBVDrVdmWKa6rMUzEL6p+XHCdV6KDhBcVfy4mXVKVIBQogXaFtyxOuqMphtAqh3qlsxTQccjELJXTWlF6ccB1Xo94hQVrwJ6z0JxY18S/cuJo3ClPgQ0Abt1duJ03BksCI1Aq3l2ZYppuNRjJkb5pwJjhG45GAnhuGvCmJo3CkviQ0AaXV25YnTcGSwAjUCvXl2YprSvRiATuKtN9044Lhux0J1KFs9Z6E4sa+JfuXE0Tqyn0NPJJduL34nSdSSwgJ5Na316MsU0nRjGsdKu8iY4ROlGBZCUd5UxNE6sl9DTyaUuL34nSdSSwgJ5Jb19e7FOa10Ym1O5Wm+6ccInSjor6Uc9Z6E4sa+JfuXwvuK20pCBOKn5Rtox9yTGvvIgneVKJ8fA1rd1P3/Nb25/PhdPVtGa8ApW0aXI1zG6LihIRbt1Pw/fwO63dLFzzWd/6ZYJEt0J7DItUaIqKZcuXJ4Jut3Ke5vO8mCY8+skY8VQErt9SJK2gSN1RQdVLqrwp4IWt3MG6fO8vhkOK00RCBOL7I20Y+5Ii33kRDvKlE+Pga1u6X7/AJre3Ppn4VtCluvzH23GtWAoiii8PT4Hdbupi55rfX/4wPTnxJ14Lm52juKNM15K1si1StpzYuxSBwrgrTPpwaVlOxY6kw1fKlarwDYcxRfBC1u5h3R5zl9Z6E4sa+JfuXBo1o2WCFxKLrCX/PgaF1JT6mvklu3E7/C+GtYcb9oVS0ZiQb8bXNasY6LnVN98PA6LqyWFBfJpW+nRlgmNG5JiECVQDqX08E0XSjGkdaO8i4JYPNzBkMNa3eXFFFRFto2OsaGDZ/i5fBCF0YwJIWrvKuDRrRsx1FxKLfJf8+BoXUkvqa+TWlxO/A00Y6RfdVN4QCiL9fA6LqyWFBfJJevp3YHosjy0YGvJOuX9ZVKJnVbClERNlpwNuRTF9breVV6cGkmzegvNtpUyTKwZCnghC6MYEkLVzl9Z6E4sa+JfuXE0DgynzIqgV26mzE6DhSWCEqANbybcsU0HHYxiyVw14FxwgcajADxXzThXE0DgyXyIqgVLqbMsToOFJYMSoA3rybcU9GlinujzWVfrjhNm1FAHSvGnCvrOAwsaKLSrVUrn04mmiGS+4pVE7tE2UxOtEclhxCoIVqm3LFNaJ+MbYFcJeXHCaJiMDZlfJOXE00QSX3FKonSibMTrRHJYcQ6CF6qba4nmhebVtxKiuOE0TEUGzK+Q8v8A7Uv/xAAtEAACAAQEBQUBAQEBAQEAAAABEQAgITFBUWGhcZGxwfAQUIHR8TDhQIBgkP/aAAgBAQABPyH/AMbEqA3ZHKoGDnmybHIkSHNRjsoDujWBji9X3XakEiF5U8h6jmyoTn5R6QclMQcrQCSLbHOALg6lwIga1WFAIYvfGUuCZxg3TjT0K2ILU2AgYN6A8doAaKGGoyeM1jWhZnBusEax+kHyh0lrhcI4BifS2sIAq9UYxBJGkKuhAFxL6D6kw7wEgpCnz4ECg8ggVTWm0GAWONkHSKllC6qrWvGKIZVZ+WDOA1X0HNlQnPyj0jVnlFBslK5wYedUVZ2Ryz908ZkYAVKKjUeAyUeJVAo2N2PLiAJUOSxBIodL8oM/kAGP0GGPKAhKruQoXBE01OcbhDej0wnpruraAHkqOtZkb3XF6wjIkD4VgoKwEEbFVE2+NNoLaOgBQk1QMlLcUabRcqHBUyg8xgzguDiUhoJRSIHByQddRizjGIi14EeeDAQGZGNsT6G7hVTUhCgGUbhD+SkyyLCQLQv+KvOL5oIWM3HuHFaBml6k6+AOBEZoDyI9Y8HSAqOoaxIYo/k84rujQoVhGVhCEdCSHD35FANkAZUBAKhqFjlBHTILhNe5fGB1AIoWQECdaQEx0IFigAqHd4wo4AsI4aHA46wEgQYA2rBEscGj8hcpZmqbQBUhyTcgNE53vjB7cNIJda35G0BFCwNR3Ge8VvDAqGfp9cYEzIOONalFejsiNFmBYBWcbhAd0BNbuDIoohUe50MKAiTnB5EJBACm6ykr8ZohvFiLywfEHhxoSA8kXEZCD/FooYXhhF3Lyg/EDYwxaDKkAKEkIBkc4tndIcQQAmAjLKH+LQDA4IAKSVsopYUJE3KL+Nf8os5eEAfEAKASIi44xdCgIC+YMDjhA5GPNe0WEJGC/Fou8c1wBhFBc0LGSgSBaiBty9aPMTJvFVBKtA2hTWD05BEjIj4jJawTOZhpLODfeKitKaw4uLHANPAMWQoCEPmLcKAIQCiCAQENOJKN31H+QdIrgTcoDggARFBZxRDyRJfEeQdo807QIZAAgBYeiLPssTV3EER3DEy+IFs6syEFkUWnODCiIAENuNTx/wDNpIAklAYxbyFMC6uwihRhTAthusrzDp3xYTjw5miNCph+ys5TtMGOCkaQMzDtjsmE4sMDoFahdPcrUceyv8QbgkQiBVPGk3Ny4W2mNOdFHP8AwmJgjAf5HecUm2d8nu5gTlaeiP2mJIVKWZfocxMUdfSduS+BMP5T9z2/Vm55t+KzCjGqrl/hMDhiAvyO85pFMr5PdzEjKW8wj9pgQBW1kX6HMDFjT0nD6euAGBsB7nterMgfx9Tumc5+AOxMiOhrVE7pIecPdzI/GcgX9pkY15gGTtNUjjmCcAo+I0foXue16s2Dfo903Jao2MyQ7GrUTt8oRlRAzNvo1wK5KZelOjMnaavTHJT4Mu1q9j3Pa9WZg/h6ndMAw2kmFt5gLCIsbqJxi0EFNkQ7TAqIRRndFMKrooXCZ/yYCktonBFXxOj9C9z2vVm5Zt+KzMloS1SGOc173vcUFPlJ73ve96cMA0IdpgEEh1U3y7zXve9+Q8sEfk0mve970JLK7lOH198BMjYj3Pa9WblbOKbz90ByhMhyjQEaAhMhAhI4WSohMhGgI0BGgI0BCZCfEDd5iGgI0BGgI0BGgIGjPdWQ/wBhMhCZCNARoCEyHKBCiJy6R8yZXw17nterMKsOMwpv/RoFxEXJVH9cXi8pgi7TQ+Mx/v8AUgAKFZzMr4a+Pc9r1ZuT1RoP6NWHY0aj+uLxeUx+lOrMHb+oJy3ECZO5Xue16szPvxB2P6NRGQ0qj+uLxeUxmNeYJg7f1CtzQaiZ3P3Pa9WYE51Ucv8AD+jSYIwH+R3/AK4vF5TCSFSlmX6HOAmBROg+Xue57XqzEjGirn/h/RoOGIC/I7/1xeLymAgCtrIv0OcBMSgVB8vc9z2vVmR9+YOx/RqI6GtUf1xeLymIxrzAMnb+oUuaDUDG5+57Xqzc3qjYf0asOxq1H9cXi8pi9KdGZO39QZluIAwdw/c9r1ZhCG4TG239GgXERY3Uf1xeLymCLtFC4TP+f1AACpScjD+U/n2pY2AGWSQIEy/RVf2DCNHsAhkLGAWhkBFuBKmKL0BckCgKwwcoMaJHKfrterNzlnFtv6NR64Wav9cXi8piqHdGZ/z+oPpHxJh/KftRAqGNlCDD4EbYLPmHECfc4suMXpNJ1YkTwPGK2HoDDuBGBTLjBMSgC9PVUmwA2LECZsyZMmQMylnFirmNmTJkyKR1a06JjZkyZMgZiBjlZzZkyZMixgtOAa5nCYyZMmTauRovIF0mMmTJkyw6QGWXMpmzJkyZLAzAItzOZMmTJk2HOAaGbiCPqyZBoGIGAOpFICiRMpyD9+37HqTLQ/OHY/o1S+A1q/1gebymMDteQZbr+tKIQg4TQf767caUoCbUMCp4m/t+16s3N6owx/RuGqRXx/ri8XlMwVtTLdT0JskGr0CY2nYPHwxBtdSGnccRbC9YeKdLQSOenrckMIw0gzq9pGKBgQRVNZJZZIXY9PGB2ms8sssyPYKTHLYDSrO6uAMCNL0s887yeWWGLQAKxbFMgGl5hluv6hJZZZZYNX/LS4ZwZVOwyPiCBqNOKhUN4BO4oKqQ2g6BDsiFK4Q4r2kn1hiEuqPwkfhI/CR+Ej8JFtsHWiu8fhI/CR+Ej8JH4SEUdeBUEN5liUNGs7LsIo1ZEbKPwkfhI/CR+Ej8JAqq6AYN9RAlaFLlSYG8wBNtbSPwkfhI/CR+Ej8JH4CFuAECDQe5tr1ZuV84pvNzvnlNpkeuFkqJ3RsRzsj3mRQRoRfNzPod1Zj/AGYWLGnpPjhe2tD7nterMKsOMwpvMAw2k2NNpgLiIuSqJxC0kVbbI95gVIAqzurmEXaaHxmP9mqRxzBOFajuHT3Pa9Wbk9UaCbmtUaGZYdjRqJ2+0YzsjMm+jTArm5n6U6swdpq9MclOHhgQIFjl7nterMz78QdibneUFW0yIyGlUTqkh5w93Mz8JyAf2mZjXmCYO0wDKW0ck4GOchJFi6j3Pa9WYE51Ucv8JjTnRRz/AMJiYIwH+R3nFJtnfJ7uYE5Wnoj9piSFSlmX6HNThSnAC+B4ld/c9r1ZiRjRVz/wmFGNVXL/AAmBwxAX5Hec0imV8nu5iRlLeYR+0wIArayL9Dmq2bzzORMAr+Ie/ue16vqA5xUEnCAh6JADFFeiPvzB2PUgQkABcmDml20A4kj0ejnPwB2JADARYh9ER0NaokrMT2xMyhWARR2DH0dJDzh7v1AQgAXJhVbgDYr0R+M5Av7SCWDgDNn6IxrzAMnaRUFwAGX2wB8+iHu+YZLzN4LTonpRiOtQTPP3Pa9X1AQLcoAAgAAAEOL05vVGw9bmIY4tAlIF2Uo36clqjYyDQl8cr0Fh2NWokLjJgszL2hhgghAcn6N9oRlRA+oj10WMCBAABADj9G3wa4Fcl6kMIxRulZj6S9KdGZO0hcQscQghRAgLIg8VGD87nIVWiRxKPNZehDzjgIE7e57XqyVEA0Cqb+ghDcJjbaS3WkS4s/QBhtJMLbyEOAzIu09ALiIsbqJBAMFphvAAAAAoB6CFpIKUkQ7SEBAJIAqm/oCpBFGEeikACAAmWpGT9BF2ihcJn/JLdLtPAPox7rkGQUNkQMEQAAAAoAPQSGQGRh/KfuZZAQwPFNzlnFtpuR04tvMj1ws1Z3TsByoh2mZQRoRfJTKod0Zn/JqJ28szjjR8SYfyn/8AjWHAAclZVePpehzUgFyRxjYT/wDKHUdmKXUIoiThF9lFH6gISQEEZVWqirAIEcrN7QEcwbQQja45wIiDEcIHOywcueCAltGJ6QQJaV/8JymQk+oQMCFeADDTKSqXyxXicMlbkz1kIWfASsDSg0i6M0J8KLhSNVL0eQAe5jCAtzJOiGTCRaAEMGQnpqM4BibRbHMEbQDS0NeiLUWrwA+9TQJ0PzTnB6tIIBORBDHzBIQ/KJoFV4wf2OrgClbVuLQBB0EhPwUUQySGthqNUBCBMEYiK5TjWNzpko04GjJS0cXCEfgwJDNpChTNWPoUW4OM3oIcOdBV0AOgiqOUAB5FCh4w7BYCkEADbj8QaUQgldGxQArX1rmUXAtZtBQlrrZ5ACFPgSQMQVgNgJVjAapk1tPiA3S0XuQRnlCPQLAwAg3BFCPQcFtKQpUloBB1FIDobYo16B6Pl+0DcFxhilflygDOeHptCK1gJ3bHhaVfnH1fUyBMNul7QugAolTLR7awM81m7CuD/wAhCzm+cAiwgwmB+UfDQYVvlRkhjqioKWULmBViWt4Q3GUIMbED05nqEXKuMY3aQSCsRHHRL046If8ACKwALWgcBT5gQ3BsFE4QcTwJESDoQRpvIug9oJJBwEXAvXxAKIghg9oeFlYwCRiJEah0v9ghUP2KZK0ygYEBWKfIVh4tDJRcBXarAmKoEAYbCuagTKQjNgDADG2UVWnIFhBV2MW0LRBIGml14QLzHgEYGozgwbKFII5ZGHB2/IgQEaHhDGsNTSq8GDXeC6EKATF4TfCDC7qkRYCkFeHXaaWV7QDgrsSqGA1Qyim+kObakgBdgYBSgBQHDirR2hD0awsgA1/IEw5JoDrUgZ0qnZMFAIcFQVB8xIWQupZAXtADSoh2U3ZICo4INC88Qgc1qQWKqBV8sI45UKsCSABdgYE1YMMAeUFDlGACDRucHBhfchGMSBHBEcRBWtRUy9CAbZtDmTtD2MVRoddoF5jARYlA4BVyzCA+PiD9G3Am+ZFEgWgbJgW5qMrDcCvxAeKoMYEAgNnHUFQZ+Zf8hW7NEEFnlADEeRsGBYFrBs2iOSTvB8slAQOeJiroLjCBrxhBagHBgIJsaQFWeEAJ2eYKgGmDtIIYegFS6/byIJOUDmU5u3bt2zZAKBoAQWIIYQJKEQCa55fwGepUkkVxgdUNDD/kDceGBXPgUJQBDEGjDUhBWMHxKXgCZ0rBB1QOEVyrMYToTOAAAAKAf/NqQgjWKz6jAxCDT/8ACI6qLOBkAv05mS3PBxfKbliz7CajXKz1Anqky8tSJhDEdIXFO6bk1i5jnM0WEzsB3nEhQrsNfcnIokqQyA4xTyY6WQAjlMkG+LgvlM8e+H0bzUSq1aieu1WjUzcjBxTebkk24pzm+VbjQDtOjly81feYiAoNVQzHD+Hv9JlNZc4PadjWfOK2UwBDazYU3mYf4Cp3TIW55A9nOJYRNzu95iYJp2T1KbD/AIznNgi2viHs58OXU8StlNyeqdBNgn6vdNgvM8D2c647OrU+8xGBQ6ChmKn8ff6TMay5we06Gs+cVspmebwwdiZB3iKndMxblnweznRHRrXqfeYiwZ4MC5nj3x+jeaiVmjUT1mu1amYU5sqOX+EpjmEywpM0b0ZaCdpwcTUt8n3mIA73DcWQMwsUKFCiMuzjiwJjJFUhHBNrFChQoQrMilvCTqmNGKCrn/hNXzvG0C6BmFChYoVjQycCm04nAlKfJ95ibbrTb6Z2HQgWm87XMjzaGLsTeNom3vTgTIjo0rVPvMTbdabfTOw6EC03na5sHqnjYTeNom3vTgTLjs6NT7zE23Wm30zsOhAtN52uYAhtZMbbTeNom3vTgTCWETYrveYm2602+mdh0IFpvO1zczJxbabxtE296cCZHrl5K+8xNt1pt9M7DoQLTedrm559/VvN42ibe9OBMsSDo195ibbrTb6Z2HQgWm87XMo/x9Tum8bRNvenAmctgdKvvMTbdabfTOw6EC03na5sP+E5zeNom3vTgTYapNHH3mJtutNvpnYdCBabztczj/D1O6bxtE296cCZS2B1q+8xNt1pt9M7DoQLTeJrm5Z9/VvN42ibe9OBMsSDq195CbbrTbqZ2HQgWm8TXNysnFN5vG0Tb2MJkeuXmr6i48zEeD2cBhQ36gRf8PFTXaAgQyAKnJlOLNsB0RYUOcGZ5rUGKAYKqXeyoO3qFL7r9Qio8F7x4L3jwXvHgvePBe8BhurqsUqx4L3jwXvHgvePBe8eC94DH/SVmdYXhOseC948F7x4L3jwTvAav1dZrCw+LrHgvePBe8eC948F7x4L3gKT2q67WF4XrHgvePBe8eC948F7w1QYr1anOPBe8eC948F7x4L3jwXvA8I8qxusLwvWPBe8eC948F7x4J3gMX7V1msLD4mseC948F7x4L3jwXvHgveGBfaDd1rrHgvePBe8O4lMdVVM2ttFBnkP+xW00UdoqZBCWHa8HJBTHMQvBL00GFxFuCAAWFMbItensIRGc7AApBQGAAxZJ+YcWHPUnVjeKQYjwa60VxvS6msFKZN1uhFVVIglSkFu1f4xNp1pt1M7DoQLTeRrmw/4TnN42ibexhNRDHWRpT1J0ARBUeoRKAOFsUgmWQj8ECk0TtwdyG9DZCKQUb0z9wibbrTbyZ8bRAtN4GuZ1/h6ndN52ibcxhM4YwCNDHuYh1Yg2go/K/UflfqPyv1H5X6j8r9Qef6XHFWYX3njWVj8L9R+V+o/K/UflfqPyv1Bf7qRsMFAmDn5RG4wUflfqPyv1H5X6j8r9R+V+oueDCdLG8flfqPyv1H5X6j8r9R+V+oLYgLQ6Wk15LEMaY/C/UflfqPyv1H5X6j8r9R+V+ory2YcGL3kISIaQ34P2mBGNVXL/CYkC6F+Qt1OTRVj8nu5jQjRV8MJgQjXV+B0TNG7U0A7TmTrCx5veYisoqDEDMY5NQYOxNQHqleonqX1oVPeZHm0MXYmchtDAJiFueQPZzlFXIXXP3mIuOuLgrlM3OqPCxmp3W89RPXupZahNg9U8bCbDLp4RWbBeZ4Hs5wZ1iHHP3mIIc0WTGD0mARbSTC28wFxWxuoE4lBexKpEwBDayY22mEcbSTCHvMxbnkD2c62NXvLEV43EQXym5XT2281Ld1mqBPWxd5KkTczJxbablaMI7zfCtxoJ2nBDEQQveYiQb4uC+Uzx74fRvNRKrVqJ67VaNTNzz7+rebkk24pzmdeyZEBnZHyWiVfeYiAoNVQzHD+Hv8ASZTWXOD2nY1nzitlMo/x9TumYf4Cp3TAXEriSA9p3KglhLH3aJa2lcMVz77IRD0wTTsnqXqO+2fwIEG5ApJiwJdz09MP+M5yFscS4K5L+mCLa+IezkKZZpcDAJjKKXK4B9MOXU8Stl6gqm1wwNu92QiHph/wnP1JAm/CMTVdrJrkt6YJ+r3SUJFNau1SiOCgQgsQxD9qbKgMhzACwUMT9QbTEA+nzju92iGxhpPDDdCZHowKDRUPqeFuchQHVMrgZtQWLY+ih/H3+kjQrmdg47+jmsucHtIc65XQCQakZwbYEarZn0Q1nzitl6mxi0323QmR6OP8PU7pF23iuQW6+iD/ABFTukOrAduaAht/EIywKHQw1GhbqR5KQDTMAQzcBeiGi3bx95iJBvg4L5zPHvj9G81EqtGonrkVq1M3LPv6t5uaTbinKYFGmZ8Fup60ratfcxvzSTUj3mS3PBxfObniz6CajXKy1Bnqky87JM3LBnwjNyaxchympcsxwL7TrHgg56/+Uv/EAC4QAQABAwIFBAMAAwEAAwEAAAERACExIEEQUWGBkVBxocGx8PEw0eFAYHCAkP/aAAgBAQABPxD/AO0XSaw/9ccLcY9ZCRdETzCMAOBKKrErvlz7xZc6EGUMkxQNpYQOpTQ2RvBic4TZzW1yryFO4pY2ZsT78ChE3Krq8hC07u2aCXOEgkYiTdZ6TGI5HCiI9ylTNggsq02jA5hVhjSSsbNw7Uvdk2k4JDFWTaWGFYMb0s/4PDbJblLFlxNEozCkF7BZzjUc5xHqKswo6+FKSReXTskbdGkVrfWcjlE2ObMYYp2Gy8l1iBiYtmMZpva11J4DlT8pVbwECw2IFUHNEDJbSUANi4nnakXCEMO6DwU3Y65pcdAZcCLW3NMUJ0IorAYiAGXLlSJLIFBWJowH2E8psIA7gzwETciuryELTu7ZqWG0pEGwLMrpMb0XMhCwliy0cxdcbM+qZZIcdIQyzEHUdtClrYkoU5HBgIYGWLJ8hdswcq8A3NOVITxK9uSmUG45VPMSTvz/AAC5lTZ+xarhxIAWIgOQBPJeWLvMIXNBAXIlcuBkypM3SFFfc70RXC0JQy8wnOY6Ka9jjbgm6qz1moBwjBbm2F42TGIqzGCoSE7AxacggsstaZKVGV71BbMKGRkvcEhkL056vCSTVsCZLPWkzixgE1IAsZBK7tezzLaonRsmUiBuCyIzDUCWVmQm7ktaANoGlbWbIzzClLxDBAokaIkHNAsLduNC98gVLBIkRee1REayEu1jp8nRoCArHGhePyOdRq0zgtAzI2OUVcwE0mkxi8F/XIJoStFhwuDNcXWlapOp2sszGXcbBaUIqG6RNsF+lotRUabnKYSUYSxaRQnHRLTyjlKMIfhRUNgK1oJtZHvRavMQQQHSJUzETTrh6oBOhuFbOUG40cwOhDeZqGLQrTzARtkCZd3Pgu3UW6gZbo0WDoMVb3bsHIEUbj/oIAAJY8ngQa0qU8wBBJO8HscLSC6b4JsR1zUDBXlMXPUxA4qcchDBTQbJyFESxlkOei3KV2JhgRNTpIipTLAsXVog+ScGYURTUAk2tmWMsG21MQtmQs0ijdEQmSVZuD2poGV4sSkXLFq6Cib1AWdGn4ms1hDAQyAX2KhX2RpIyxlcHG1MTAECkCSiSRyYowOCnHJQSUupRzN+83pNm68EywLF1e9RAXdQAhjKQG+xSpGVmnMklmlxQKkoyTYqxUGpBLtL3Iwy7b1MPm+jmQjsqI0OOA7YIjpThOhKuaAmr1ejUfLeDBIWM1z5qO45ASmDda3vXqYhQWphPI4pwGDLAX6FCCFETCEGOy2aeujAHJNmZZbzvSFRm/rNwkvyp0zC7RiGSRQV5gWeQpJQ7JBy8gLBTgXMKZugpeRhmJQMhnFBLgxMCaKuwVRICXBuTTVkTnZtIGLFulWUs8ESHKYOALAGxwwgsEYuJSImxtTpSI1IYkGJC3Sn+OsffH8wgM8lqxGGCof9hdy//g+b+mT6kZYEqYAqRmwiRhh1Hf8A2YAWo03BHxvFMPY1Ga0cWTH5dbvtCrKi+RNRtIIyZ3e8PjU6LRZSQewLqxnlSDnrKunIJfIH2o9QaEr9dSy6C+4pJyk0qAXMweWoamCN8vfZqhvvdbtQz0YUQWvw1xZ5ppvq9N4MkwPw9SDqvJsFI6aZReEkRrlHUCRAX2B3epILKElAWQnVvlRaF8W1GNMld7LZqGOBCmS1+GubPFFF9XorbkGT8PUkajwbhqUovGCZ157Q3lRe6O/rI0vFtDfPwoaZW/suY8qHLTPRBDMIj5jXHHdBEIfkF31WrmDgd6A8qNNjq1ZA9ylHLTJNKDPRrfUT5SJtFdyu/rI3rvs562owh9h/1BajSoVQJN4Hylb6m7ogRJZ3Re+pp0JeLRPueaNLaIvMkHcJ3o0TUkkDk9Ct9X4yZ6ySNLxbR2x8qGl9CAEjnm2yir6H6pESTDHee3C+lq0zYZJHW7vqFSelCw4nf7KPbS5Fc1ZzO0x5cb1FRSsFmZeyKnUb4SLvUdmO3rI34UWx829GNNhbUh5zqtR/ylfzlfzlfzlfzlH3oiVcBI9pe1Qv1q/nK/nK/nK/nKn/ANalbUkYYAT3A96NDQVQgqH8QoEX8Sv5yv5yv5yv5ygLCxbBPQsd1BbHZX89X85X85X89U1mAKyWBvQiSao7Q/nJewO3rI3enpc88r6SiIpJP4uNufyq/lV/OonBmC1PqK/nV/Kr+VX8qv5VP/O4Ut9JQg80r/l1/Kr+VX8qv5Vcl4F4p2U7K/nV/Or+VX8qr9RJAZ4OpRjVnoaJkL7A7PWRpoaJXDlm27SV8/8AFU0VNTU0z0IiSKZ7R3oqamp4PClvrTTU1NTTELGrGY3ifCi1TU1NTXyf5KMamRmUSn1mwDVkZ43VjqXo0FfP/FwNDBRAsWofIaSnHClv/jTNom8yBdkvajRvXyP5KMamrEDZke7J2esjd/jVuDyoEGgr5/4uBojoAliEx8xW+gpxwpb/AONNc6tWAPZrRz0/I/koxqgxksm1nZjt6yNn7vdbFpCvn/i4GjPRhRBa/DSU44Ut/wDGmg6rybBSOmjevkfyVhquJcUzc/rJGx93sty0hXz/AMXA0Y4EKZLX4aSnHClv/jTSNR4Nw0revkfyVhqsJcERYfrJG7fGrcPhQuaCvn/i4GieiCGYRHzGkpxwpb/401jq1ZA9ylHLT8j+SjGqTGQyL2dyu/rI1ZGON1c6FqNBXz/xcDQ4VQJN4Hymkpxwpb/40zaIvMkXcJ3o0b18j+SjGp6xgyIXu6d3pTU1NTU1P+Ia6FErBzzfZpK+f+LgaHepESTDHee1c9BTjhS3/wAaZiFzVnM7THlRe+n5H8lGNTIzKIR6VYEYREjeSG29XbGaYHcwBtzpVnmBCyTJjNMVq4RWuGCA3aftsfNhKI7pjehECne9NqXIQwz1o/wDdpelzzytpK+f+LgaJJbIJvB9z20lOOFLf/GmsThfEF7p5UaN6+R/JRjVjoaIgL7A7vSnI0kpckx7UlgFrJyiDBXPSmDmcy5gSwQxSfJ0pRGyQgcUc7QMw6sKpPMwspll3vSJjMMGUzbrRwGjJojzyPZ1WJkyZMuqFiusRIhxNGgxMmTL1MevEoGCQGTflqsXJkyZICMRnCc8k6jEyZMuS2Kwm+oBIK6GE1DJkyZYH/CNHKhIyZzqOTJkyYYxXAiM3TFbnqETJky4+eohWTYB3oCDVyZMmTLEaxyXglY2Pc4zDmHYuQosxEPmjza+F9n6Ho8BwioqKj/DPQnv9kPhQuaN6bH1/FwNARJ5EyhPxOkp4YN/8eMuRpzE3nFq+b/JRjUJvBuabrfgaTQeDJ2guwXxzoM7JSvfLu7wmpox6YNmr8YpJOON3c6FuF9Hz/xVOn8ICmE/E0b6XjivV6vV63FNtp73BnbaiYvp+f8AyVhqmQDbPKR0meMcTZNkDzbzyUHzY4IoNvtvzp8YEVwk1aJSS1FcBCBXCUJMhSuyDRd0UkE3i3pE0BSF7MaLJX7x91+4fdfrH3X6x91+ofdXGuQi9szfZX7x91+kfdfrH3X6x91+8fdZyasCmFhtXTSEaeTEoT8TW+loO7V56umS1P6x+eBD9I+6/WPuv1j7o/SZXSYhajSXZ1PmLxmo0sGWAb8lEP6Hmv1j7r9Y+6/WPuv1j7o5P+3OsRfmRBEhbTOuM4lsKxvu50clPSqtx0XxR7ETAiZDLlcpAGTZYUEzZAY29JSUKqLfUr9x+q/cfqv1P6r9T+q/e/quouXJNu91H6n+K/U/qv1P6r9T+q/U/qsmtbTlQ2urlOaNEZpnPgX4Gt9QPm5bkiNkO1fsP1X639V+p/VfqP1X639VGbOVEzsc/g1L7DzwA7Ie1GXSkVQJiK8j9PpX6n9V+p/Vfqf1X6n9V+9/VEJNvkBAcvaj1GOA2KjjFb39LnnlfVN+Dm5Z5X1QS2SRan1HfXc9jM2IdgHau2m586MgrweNV2cb4gnZfDVMLxgmauovg5VgY7lHrA00NErhyzbdqVCjAdM33UW0u9CIkime0d6NTl5G7Bp6WdtQpbVeIjMbfRqYhY1YzG8T4UWtpkmlBno1vqndpJmuXU9ZGrIzxurHUvRpYQ+4/wCIL0aWCiBYtQ+Q1t0RBmSx2VO2po0peJVHueKNLaJvMgXZL2o0pJQOT0NcHDNEzfs9ZG7/ABq3B5UCDTL3N1yHjQ56Y6AJYhMfMVvqnjukmVfwQ7ar1zBwO1I+FGm5xasAezWjnpQkkzJ9iplTVDZBxL8B9ZGz93uti1EN97rdqGejCiC1+GuLPNNN9XpvBkmB+HqQdV5NgpHTTLmKFMuWudSo+pidLvWRsfd7LctRJXey2ahjgQpktfhrmzxRRfV6K25Bk/D1JGo8G4alPcr49rXeS5gBnS6j1UaPklKAGVo/I/mEiTmSZ4bfGrcPhQucBCFKIA51cC6I0wEAG7KjFSt/Zcx5UOXFKHhXjFWNi2aKnoghmER8xoNNrSUEwbAN6mQemQcI47oIhD8gu/EvCyiAKlSBwyKGOZO/C1cwcDvQHlRxuZMnjgLA9M8LHVqyB7lKOXEcEo/ZQElY3FFFOSUT0a34lxWWeA5rgKZBTokSJJwT3MnuR3gvqw2Hb7Jhi5ig2FggI4KyMcbq50LUcGIiys3QUCwQ2IehKNunBhL7D/qC1HFUuwmyTg4VQJN4HynGKsgFeAtc0czSyIajg3WBCJLO6L34hi+/Y8KEE6EBGDg0aAvFon3PNHAkCRIa6mz6RV6zwbRF5ki7hO9HBp8+Le2Blw1KlcXoTXUL5FTfjfcy3IxTtUf38eEhJ2Se7BT39WWpJFNWVRwklQbrfg6FErBzzfZof0U+6mCe6ikQogd2bbKL8YdHZrBErZhfPB3qREkwx3ntXPjFywGnnAosDQCAOXBy8jdw0dbu/FxRYIhhSVbdeApbVavMTv8AZoDxURiMiyi7wYhc1ZzO0x5UXvx+eEgkEnaiinJKY6uhyBhCGRHNFrUAgA24QVlxb9sOvqcL/BwnT1bS9LnnlbVJ2Qi5Z5W1SS2QTeD7ntrscxmLEe4HvqsfOjJI8HnVYnC+IL3Tyo0ziu+fa54OgIsX2B3UepFtUao1N9Zb/wBJ/wDwGdgQEmWNHxQjPARRJVMCzFDRzCxfEUOZiYVkf/inX8yYPdScoM5Yo95o1cFLKROZTlkkYrgY96UM8CzXyrAVHSXJZ81DRvcz3KsjmT2f+qd55ASTvdosyCQEQ/3VgKIxkvN5FMLRImIX2peggy2HaguvlOY3oEBkQFj2pX97HUY+/wDwoExEwEhsl2/alpeoVtD3Bi/Sm5DBzzchIWjd9aJP+DRcIBdE4epSEkogDsBnYum7CTkUay3SWE6USEZKU+mlODnwc+gXBSw2xl6iRhcjsWTfDwNx3sXiIus96gDGQgBDNRiMktzD4KKVtCN7JBvCJkqWJaCSQJIbgIvNERIFUD2BEYFmGMMOuqZhwTDYXTNpoeFzEhbKmFy7Y51GhC2RnmAYTgUNyS2CekQkSiv23A6ewWl0picUz5UZBCH6JRZ1SENYRYhmHlUcvFwZJm4LCSoN5miprYk9soq7UPtGe5oBzEQZEyVza8UACkSbZXgy0eGj7CZIKTCKvV6sNgTxlIlfdShujAD128ewUzFEpVRxfEILyoOnmEMpnx5yRM0Z/Yg9g+GlS02hSGiSiEWSUTkUzLbyylS+cxdsWmRBJcRmhEWAnF4YinJXIohCUIAlJE8kXNhs5J3jA8vJUNenpigElIi5JLSJJ44lAmRcWb2GIcCkXFx54MoF6uOS+aTd8SwDKhnITe6YhClGchFHXD8Q/wDkTAIvYErNHSRzGaQGJXkJ6Vbp9gX/AJXsBVMNvapgGwzILhPijbJBltdgn2iiG04VDe9B1QWZJHGeTQBLo+UosQYoDhYS36c6gqBJhiWAKAy65Eod3/VA4lMPOErkwQ9sfXDkwA9s/X/hENTIKtKxYOyjwxIV3FY2XvtNQmWuSIciu6MInRC67pqCFQndsbtLFLWBFsoFJFJGEssrqKuhMA3RDYveoFAhy4MGSJQ8GD1cxhI945eaC+YybNiDVnY61ACHnUQJKCFw3sK1BlCKjEkpIJSEhtOUzTy0WZsQlLEmagPyVMMISBO3NwTTUjNsQj2ISDMGUKd7RI9MkxSXBkzStwnkiRxsN4onxK78EByr75JGabBqS9J7DCLJxaA0bovhYYxElYp5o3lrwLE5dimHlQy1lkIKtE2AWvVs2SyhphEtweGmS00sQtI3QA77wYrSAQSAZCLlbNLmHFcSxYgm7ETQCDkQE5T52sxajgYRAbz+wqeRg+EhmIbbDNELkwlgCQQjm4tUkQATGzmTkgXnaUx0zs6hI2QVMEHek92gUgeCw5sKcvxAzFkJKwSzPQLkARISbpEeiTWxvy9WmLgE5oOsUrCIS8pF7SRNX9cAisFIJILTOEprcwq0bMNgC4pZpSI9wcwJsuEihNuu+wxikEF4yxdlAKA3v2vSKubAXU55LvF6TXwTykiS3q5ZtS7yv1O+glfc5Uma9O5Qh0kT/wAiRndbnuU1LXaUUul7qgOnKgu4YT4SiIwp8VZ1rSdSgjF0ryRn7fFFYUvIw8m9SCwCYS3vG1R84fg/3XTo8isvU4Thj6pPyGGUTGEedHgNaIlO1WauQuWEpW+RANmeCQSWef0+D6UKWNp3W7vriJEiRJkd/wCg8ZAUOY4UwtGzwhJebAJegFOslab91w2SSSXJsjDRsbjwA/8AJMMKiELm5POkyAxlf/qn4WAuxutMFEcASxCVZQEEENmKPFIRLEYj7qLoIB1qbnuzJ8zUwC9nN2ooCKQ2UTYCAMB/8bUNewkrbM9j8107oI//AG4tE/8Aimjr6kMS7GJgwdXFTG3jjcOiJ3HU/l5C5DyHzqWq03P9obanUjZ5mz4V7a2y3VzAnwD31dME7Ob31HMHUOx8hjUsEIHMHgT21tABGuSiO0epAGvMA3IENg3TFECUJODwRybpmg0PtU4lHVTzB51QlI+8POzVGPfvxPgV1NeFOqI+Ae+lrdxgc88r6ozO9iXzT41TrYOo8Al7a4a7JJvT9x29Z9lKtQzfgMagsOtNsvLUC0GYTNr8msrVpCItagrlGQ6Ztu1FQPYbT8paitTiJkQ1hWoweQnPeO3rHtyV20nM5OkcV1y389DU6aOW1Q3r6YzVBpLbr2RtJfS4rpou5xt8tXVryEawJFEKzen5fWPbRTr4sz5DGloDDrzfDw1CtFmMR/2NZQrSMze0hvap+tymBZtOk0VItxvPwlV9JWpxsQCah+aisouISN/efWPbUIgEu2eanjhNTU8JT2ZuQ8bqi+mO/PbmfgSoqampqaSa8ibQx8IdtLyqS+7rZpGFRGB7Cnii8I435RUo+qbZ5AJ31b1FNrhMlz5n1j2m9XD/AAW9jKnfFOmARI0YIJNoTHybIyZ0tCIE2hHnUquDSCJEiRlkwNCNwLsl5/x20vOpL7st2kO1SBfYjZkiTa2kDBgQVKSIbefrZIHlkzQyad6mm1giC58z617c76sDVDwad9Tra9T9bhMi7eNJr4OnHGqdH5qeyiwhA29x9a9ud9WBqh4NO+t1pLR3iN4LaWvg6ccap0vFUKRaGPc9a9ud9WBqh4NO+p3elcowHXN9mlr4OnHGqdKtVg8BGO09/WvbnfVgaoeDTvqda2M6XPPK2lr4OnHGqdMktkEWo+p7+te3O+rA1Q8GnfU6+1fOHlHjZpa+DpxxqnQ1KLJz8g+A9a9ud9WBqh4NO+p1ooDrTfPw0mvg6ccap0hKhkRKUfEete3O+rA1Q8GnfU65K65bOeppNfB0441To51+FATKPiPWvbnfVgaoeDTvqdaKA682x8tJr4OnHGqdISoZMylHxHrXtzv/AJAAeDSatWvjDyjzu0tfB0441ToaEWE5+SfCelDNTwnjP+J3Z3036gKg8GmY1arU0cXXPPaV9LSn2NOOFTCnTBLZJN6fuO3FQ8AoBBuzk4SRPCSljNT6AztSKQuCAbHKy9JpgnZ+VA9wFNnIhbRdI7Kv4qFhDCSqMWo0jll5YmlKMhNF0MtWArfeODe1Pa3UVNwGU41ESJEiBhWccydY4mZ1ESJEiRNIrgY9ZLGI1UyJEiTvnxhJtImOYrpjSSJEiRuXqPL/ACZv5iOZ0wSJEi0RvvqF5Utxj5aiJEiRI3fozEPuDGI1YSJEiTFO7WTbxMcxXTHXUyJEiRAqfuSNkhGfERIt3s1KXEyui80PY1Ake7n862Hm3ZbTG1IILpUwIN96fiwit2QqT52pmIzJQVTIAGVep0jKE+YE5WumbegNB9UiFBd7zW100gEr5IHQKJqKsoGwhhHI+9M9hNNSEUXXC1hpl7A/jDyqerHJjaQW7VFagGuQDYHFF9Xt/wANkg1A8Wl1C711y2c9TSa+DpxvxqHSCiYJE5Ltg88XNeIIKSDtg8cHej70HlO7qE+GZEl/erPcKSCF0sooJEZEMTV3kJox/v0iePu9X0eeelTwher1NTXw9TngKaGiAOvNsfKl6vV6vwfh054FMKvV6vXep60GwZERfAt/gj0qbxUgotXeScalaNmzZlZQhoEpAZ9tqdCxUANIUXEhwXxqxo0bNnGNkQHJAzyzvUovnTNEYBMDnk4vJnbSjRs2d2ppIvRzdvnqEaNGjRuigi1ZIARBfvRxeAREVZzw0ksQaWjRo2YSzU5Tic4tmAgSY9Si862bTCy2R/F0kkqaatlsoRpbOZGJnVCLzU0/wIigRoaSePbZnSEqSoPTR9VqhPYgwfAJe2qL05IRXKslnGPWPba9T2c7Qq7eAdUaenWC7abNUIkZi4i3umqa2aI0WBZ7HS2vU/W4TIu3jUjGzpxbtpI1FanETIhrEfqDcrZ7vWfbZ3scXa7eAnfU9uKUuaNpLalhgjk3EfKPbV708O7xFiLe4vfU0lo7xG8FtTPzs7IbdtIxq6teQjWCXHpMkN+71j2051CkL9neyO+lpRqRcdc22amSkmMnE6TPbVvS+basHE6xPfTvSuUYDrm+zS06UCuLfLa6NRWpxMQCawxeIlBZz7vrHtqSAyLfPgjvpam7ox8s8raooytJvZ+Z7a9qWpFpPIT30tbGdLnnlbS1BZai26fKNU62LoPIBO+tA8aKIYxz9Y9vtU4lHVTzB51QlI+8POzVGPfvxPgV1NeFOqI+Ae+l9q+cPKPGzVGZ3sS+afGqTeSSLw8hHfWUg2FoQPj1f3NNFKtQzfgMagsOtNsvLUC0GYTNr8msrVpCItaBPAoDrTfPw1CoHsNp+UtSmUqOpDrZ31vekPaJRb2j1b2TyLUX2zSUMf1hgnfGaNq7aTmcniFtILMSI/VS1w0iqgrAvEKi3WuuW/nocTSR0WSUMTPMvF5qCSumjluMGko0AkUg5FXntTyYRPMdkmivpjOMAD3ai7jO3NqbNt1jwlzYzvRtXXLZz1OKxjAmMmmoYpMF2JQgPN65100Xc42+XHepqq6ZJFYkTcxmkPkScxpNaUmLA8oHfQ2WhazC5Xlu5lLFJcjqVaa3nff90fEerezIGYq18ZEnC3MSslFKvQzPkMcTaBKW4SfalAT/AILCCAF0DPALDrzfDw0LEBAE8q+bjFTQWgzGIvfk4uKbOimIkBIm680Xl1t6lDgVq0jM3uIMkZS1T0EkEnS3MSslFAdebY+XE1aMBlsRGTDgVA9xvPwlxaTKCCCwhlsghF6HGgexW3VbIRLvYNFtKKu4bUBcBR1jh18OJdF/aPUp1W3pUYlHRTzJ44xQVipSkfaHjdqjHv25nyCaIqKa8oNWx8IdtLyK+MPKPO7RFuEZlexJ5p0RUVJnrtF9IIqbxUGc3UyUnwnqaCFQQOrzeTl3AeR+NS0Wu5/pDfU6kZPMWfAnfW+W6vInwh21LdvZP+2N9TmDiXY+QTqGylLvAPkaopdah86fw/8A5S///gADAP/Z;clipPath=inset(0% 15% 50.36% 4.33%);" vertex="1" parent="1">
          <mxGeometry x="30" y="20" width="480.44" height="270" as="geometry" />
        </mxCell>
        <mxCell id="4pEV9Q5xe-dX64LNk-WE-2" value="" style="endArrow=classic;html=1;rounded=0;" edge="1" parent="1">
          <mxGeometry width="50" height="50" relative="1" as="geometry">
            <mxPoint x="240" y="680" as="sourcePoint" />
            <mxPoint x="240" y="410" as="targetPoint" />
          </mxGeometry>
        </mxCell>
        <mxCell id="4pEV9Q5xe-dX64LNk-WE-3" value="" style="endArrow=classic;html=1;rounded=0;" edge="1" parent="1">
          <mxGeometry width="50" height="50" relative="1" as="geometry">
            <mxPoint x="240" y="560" as="sourcePoint" />
            <mxPoint x="600" y="560" as="targetPoint" />
          </mxGeometry>
        </mxCell>
        <mxCell id="4pEV9Q5xe-dX64LNk-WE-4" value="" style="endArrow=none;dashed=1;html=1;rounded=0;" edge="1" parent="1">
          <mxGeometry width="50" height="50" relative="1" as="geometry">
            <mxPoint x="280" y="680" as="sourcePoint" />
            <mxPoint x="280" y="410" as="targetPoint" />
          </mxGeometry>
        </mxCell>
        <mxCell id="4pEV9Q5xe-dX64LNk-WE-5" value="" style="endArrow=none;dashed=1;html=1;rounded=0;" edge="1" parent="1">
          <mxGeometry width="50" height="50" relative="1" as="geometry">
            <mxPoint x="320" y="680" as="sourcePoint" />
            <mxPoint x="320" y="410" as="targetPoint" />
          </mxGeometry>
        </mxCell>
        <mxCell id="4pEV9Q5xe-dX64LNk-WE-6" value="" style="endArrow=none;dashed=1;html=1;rounded=0;" edge="1" parent="1">
          <mxGeometry width="50" height="50" relative="1" as="geometry">
            <mxPoint x="360" y="680" as="sourcePoint" />
            <mxPoint x="360" y="410" as="targetPoint" />
          </mxGeometry>
        </mxCell>
        <mxCell id="4pEV9Q5xe-dX64LNk-WE-7" value="" style="endArrow=none;dashed=1;html=1;rounded=0;" edge="1" parent="1">
          <mxGeometry width="50" height="50" relative="1" as="geometry">
            <mxPoint x="400" y="680" as="sourcePoint" />
            <mxPoint x="400" y="410" as="targetPoint" />
          </mxGeometry>
        </mxCell>
        <mxCell id="4pEV9Q5xe-dX64LNk-WE-8" value="" style="endArrow=none;dashed=1;html=1;rounded=0;" edge="1" parent="1">
          <mxGeometry width="50" height="50" relative="1" as="geometry">
            <mxPoint x="560" y="680" as="sourcePoint" />
            <mxPoint x="560" y="410" as="targetPoint" />
          </mxGeometry>
        </mxCell>
        <mxCell id="4pEV9Q5xe-dX64LNk-WE-9" value="" style="endArrow=none;dashed=1;html=1;rounded=0;" edge="1" parent="1">
          <mxGeometry width="50" height="50" relative="1" as="geometry">
            <mxPoint x="440" y="680" as="sourcePoint" />
            <mxPoint x="440" y="410" as="targetPoint" />
          </mxGeometry>
        </mxCell>
        <mxCell id="4pEV9Q5xe-dX64LNk-WE-10" value="" style="endArrow=none;dashed=1;html=1;rounded=0;" edge="1" parent="1">
          <mxGeometry width="50" height="50" relative="1" as="geometry">
            <mxPoint x="480" y="680" as="sourcePoint" />
            <mxPoint x="480" y="410" as="targetPoint" />
          </mxGeometry>
        </mxCell>
        <mxCell id="4pEV9Q5xe-dX64LNk-WE-11" value="" style="endArrow=none;dashed=1;html=1;rounded=0;" edge="1" parent="1">
          <mxGeometry width="50" height="50" relative="1" as="geometry">
            <mxPoint x="520" y="680" as="sourcePoint" />
            <mxPoint x="520" y="410" as="targetPoint" />
          </mxGeometry>
        </mxCell>
      </root>
    </mxGraphModel>
  </diagram>
</mxfile>
